<svg xmlns="http://www.w3.org/2000/svg" xmlns:xlink="http://www.w3.org/1999/xlink" display="block" class="plt-container" width="800.0" height="400.0">
  <style type="text/css">
  .plt-container {
   font-family: Lucida Grande, sans-serif;
   user-select: none;
   -webkit-user-select: none;
   -moz-user-select: none;
   -ms-user-select: none;
}
text {
   text-rendering: optimizeLegibility;
}
#pFoP0Kb .plot-title {
fill: #474747;
font-weight: bold;
   font-style: normal;font-family: Lucida Grande, sans-serif;
font-size: 22.0px;

}
#pFoP0Kb .plot-subtitle {
fill: #0000ff;
font-weight: normal;
   font-style: normal;font-family: Lucida Grande, sans-serif;
font-size: 16.0px;

}
#pFoP0Kb .plot-caption {
fill: #474747;
font-weight: normal;
   font-style: normal;font-family: Lucida Grande, sans-serif;
font-size: 13.0px;

}
#pFoP0Kb .hyperlink-element {
fill: #118ed8;
font-weight: normal;
   font-style: normal;
}
#pFoP0Kb .legend-title {
fill: #474747;
font-weight: normal;
   font-style: normal;font-family: Lucida Grande, sans-serif;
font-size: 15.0px;

}
#pFoP0Kb .legend-item {
fill: #474747;
font-weight: normal;
   font-style: normal;font-family: Lucida Grande, sans-serif;
font-size: 13.0px;

}
#pFoP0Kb .axis-title-x {
fill: #474747;
font-weight: normal;
   font-style: normal;font-family: Lucida Grande, sans-serif;
font-size: 14.0px;

}
#pFoP0Kb .axis-text-x {
fill: #474747;
font-weight: normal;
   font-style: normal;font-family: Lucida Grande, sans-serif;
font-size: 12.0px;

}
#dxRH5os .axis-tooltip-text-x {
fill: #ffffff;
font-weight: normal;
   font-style: normal;font-family: Lucida Grande, sans-serif;
font-size: 13.0px;

}
#pFoP0Kb .axis-title-y {
fill: #474747;
font-weight: normal;
   font-style: normal;font-family: Lucida Grande, sans-serif;
font-size: 14.0px;

}
#pFoP0Kb .axis-text-y {
fill: #474747;
font-weight: normal;
   font-style: normal;font-family: Lucida Grande, sans-serif;
font-size: 12.0px;

}
#dxRH5os .axis-tooltip-text-y {
fill: #ffffff;
font-weight: normal;
   font-style: normal;font-family: Lucida Grande, sans-serif;
font-size: 13.0px;

}
#pFoP0Kb .facet-strip-text-x {
fill: #474747;
font-weight: normal;
   font-style: normal;font-family: Lucida Grande, sans-serif;
font-size: 13.0px;

}
#pFoP0Kb .facet-strip-text-y {
fill: #474747;
font-weight: normal;
   font-style: normal;font-family: Lucida Grande, sans-serif;
font-size: 13.0px;

}
#dxRH5os .tooltip-text {
fill: #474747;
font-weight: normal;
   font-style: normal;font-family: Lucida Grande, sans-serif;
font-size: 13.0px;

}
#dxRH5os .tooltip-title {
fill: #474747;
font-weight: bold;
   font-style: normal;font-family: Lucida Grande, sans-serif;
font-size: 13.0px;

}
#dxRH5os .tooltip-label {
fill: #474747;
font-weight: bold;
   font-style: normal;font-family: Lucida Grande, sans-serif;
font-size: 13.0px;

}

  </style>
  <g id="pFoP0Kb">
    <path fill-rule="evenodd" fill="rgb(255,255,255)" fill-opacity="1.0" d="M0.0 0.0 L0.0 400.0 L800.0 400.0 L800.0 0.0 Z">
    </path>
    <g transform="translate(28.5 52.5 ) ">
      <g>
        <g transform="translate(25.416647280259767 0.0 ) ">
          <g>
            <line x1="33.61742512362456" y1="0.0" x2="33.61742512362456" y2="297.0" stroke="rgb(233,233,233)" stroke-opacity="1.0" stroke-width="1.0" fill="none">
            </line>
            <line x1="100.85227537087367" y1="0.0" x2="100.85227537087367" y2="297.0" stroke="rgb(233,233,233)" stroke-opacity="1.0" stroke-width="1.0" fill="none">
            </line>
            <line x1="168.0871256181228" y1="0.0" x2="168.0871256181228" y2="297.0" stroke="rgb(233,233,233)" stroke-opacity="1.0" stroke-width="1.0" fill="none">
            </line>
            <line x1="235.32197586537188" y1="0.0" x2="235.32197586537188" y2="297.0" stroke="rgb(233,233,233)" stroke-opacity="1.0" stroke-width="1.0" fill="none">
            </line>
            <line x1="302.556826112621" y1="0.0" x2="302.556826112621" y2="297.0" stroke="rgb(233,233,233)" stroke-opacity="1.0" stroke-width="1.0" fill="none">
            </line>
            <line x1="369.79167635987017" y1="0.0" x2="369.79167635987017" y2="297.0" stroke="rgb(233,233,233)" stroke-opacity="1.0" stroke-width="1.0" fill="none">
            </line>
            <line x1="437.02652660711925" y1="0.0" x2="437.02652660711925" y2="297.0" stroke="rgb(233,233,233)" stroke-opacity="1.0" stroke-width="1.0" fill="none">
            </line>
            <line x1="504.26137685436834" y1="0.0" x2="504.26137685436834" y2="297.0" stroke="rgb(233,233,233)" stroke-opacity="1.0" stroke-width="1.0" fill="none">
            </line>
            <line x1="571.4962271016175" y1="0.0" x2="571.4962271016175" y2="297.0" stroke="rgb(233,233,233)" stroke-opacity="1.0" stroke-width="1.0" fill="none">
            </line>
            <line x1="638.7310773488666" y1="0.0" x2="638.7310773488666" y2="297.0" stroke="rgb(233,233,233)" stroke-opacity="1.0" stroke-width="1.0" fill="none">
            </line>
            <line x1="705.9659275961158" y1="0.0" x2="705.9659275961158" y2="297.0" stroke="rgb(233,233,233)" stroke-opacity="1.0" stroke-width="1.0" fill="none">
            </line>
          </g>
        </g>
        <g transform="translate(25.416647280259767 0.0 ) ">
          <g>
            <line x1="0.0" y1="297.0" x2="739.5833527197402" y2="297.0" stroke="rgb(233,233,233)" stroke-opacity="1.0" stroke-width="1.0" fill="none">
            </line>
            <line x1="0.0" y1="232.08658945278904" x2="739.5833527197402" y2="232.08658945278904" stroke="rgb(233,233,233)" stroke-opacity="1.0" stroke-width="1.0" fill="none">
            </line>
            <line x1="0.0" y1="167.1731789055781" x2="739.5833527197402" y2="167.1731789055781" stroke="rgb(233,233,233)" stroke-opacity="1.0" stroke-width="1.0" fill="none">
            </line>
            <line x1="0.0" y1="102.25976835836715" x2="739.5833527197402" y2="102.25976835836715" stroke="rgb(233,233,233)" stroke-opacity="1.0" stroke-width="1.0" fill="none">
            </line>
            <line x1="0.0" y1="37.346357811156224" x2="739.5833527197402" y2="37.346357811156224" stroke="rgb(233,233,233)" stroke-opacity="1.0" stroke-width="1.0" fill="none">
            </line>
          </g>
        </g>
      </g>
      <g clip-path="url(#cppeXVp)" clip-bounds-jfx="[rect (25.416647280259767, 0.0), (739.5833527197402, 297.0)]">
        <g transform="translate(25.416647280259767 0.0 ) ">
          <g>
            <g>
              <g>
                <path d="M33.61742512362456 297.0 L33.61742512362456 297.0 L34.93317561769988 297.0 L36.248926111775205 297.0 L37.56467660585053 297.0 L38.88042709992585 297.0 L40.196177594001185 297.0 L41.51192808807651 297.0 L42.82767858215183 297.0 L44.14342907622716 297.0 L45.45917957030248 297.0 L46.774930064377806 297.0 L48.09068055845313 297.0 L49.40643105252846 297.0 L50.72218154660378 297.0 L52.03793204067911 297.0 L53.353682534754434 297.0 L54.66943302882976 297.0 L55.98518352290508 297.0 L57.300934016980406 297.0 L58.61668451105574 297.0 L59.932435005131055 297.0 L61.248185499206386 297.0 L62.5639359932817 297.0 L63.879686487357034 297.0 L65.19543698143235 297.0 L66.51118747550768 297.0 L67.82693796958301 297.0 L69.14268846365833 297.0 L70.45843895773365 297.0 L71.77418945180898 297.0 L73.08993994588431 297.0 L74.40569043995964 297.0 L75.72144093403496 297.0 L77.03719142811028 297.0 L78.35294192218561 297.0 L79.66869241626094 297.0 L80.98444291033626 297.0 L82.30019340441157 297.0 L83.6159438984869 297.0 L84.93169439256224 297.0 L86.24744488663757 297.0 L87.56319538071288 297.0 L88.8789458747882 297.0 L90.19469636886353 297.0 L91.51044686293886 297.0 L92.82619735701418 297.0 L94.14194785108951 297.0 L95.45769834516483 297.0 L96.77344883924016 297.0 L98.08919933331548 297.0 L99.40494982739081 297.0 L100.72070032146614 297.0 L102.03645081554146 297.0 L103.35220130961677 297.0 L104.6679518036921 297.0 L105.98370229776744 297.0 L107.29945279184275 297.0 L108.61520328591807 297.0 L109.93095377999342 297.0 L111.24670427406875 297.0 L112.56245476814406 297.0 L113.87820526221938 297.0 L115.19395575629471 297.0 L116.50970625037004 297.0 L117.82545674444536 297.0 L119.14120723852068 297.0 L120.45695773259601 297.0 L121.77270822667134 297.0 L123.08845872074666 297.0 L124.40420921482198 297.0 L125.7199597088973 297.0 L127.03571020297264 297.0 L128.35146069704797 297.0 L129.66721119112327 297.0 L130.9829616851986 297.0 L132.29871217927393 297.0 L133.61446267334927 297.0 L134.9302131674246 297.0 L136.2459636614999 297.0 L137.56171415557526 297.0 L138.87746464965056 297.0 L140.19321514372587 297.0 L141.50896563780123 297.0 L142.82471613187653 297.0 L144.14046662595186 297.0 L145.4562171200272 297.0 L146.7719676141025 297.0 L148.08771810817785 297.0 L149.40346860225316 297.0 L150.71921909632846 297.0 L152.03496959040382 297.0 L153.35072008447915 297.0 L154.66647057855448 297.0 L155.98222107262978 297.0 L157.29797156670512 297.0 L158.61372206078045 297.0 L159.92947255485575 297.0 L161.24522304893108 297.0 L162.5609735430064 297.0 L163.87672403708177 297.0 L165.19247453115707 297.0 L166.50822502523238 297.0 L167.82397551930774 296.99999999999994 L169.13972601338304 296.99999999999983 L170.45547650745834 296.9999999999995 L171.7712270015337 296.9999999999986 L173.086977495609 296.9999999999959 L174.40272798968437 296.9999999999884 L175.71847848375967 296.99999999996794 L177.03422897783497 296.999999999913 L178.34997947191033 296.99999999976836 L179.66572996598563 296.99999999939536 L180.98148046006094 296.99999999845255 L182.2972309541363 296.99999999611697 L183.6129814482116 296.9999999904456 L184.92873194228696 296.9999999769473 L186.24448243636226 296.9999999454574 L187.56023293043756 296.9999998734494 L188.87598342451292 296.99999971204613 L190.19173391858823 296.99999935741437 L191.5074844126636 296.9999985935989 L192.8232349067389 296.99999698088055 L194.1389854008142 296.99999364274765 L195.45473589488955 296.9999868688021 L196.77048638896485 296.99997339180135 L198.08623688304016 296.9999471023452 L199.40198737711552 296.99989681794665 L200.71773787119082 296.999802503479 L202.03348836526618 296.99962902289184 L203.34923885934148 296.9993160623625 L204.6649893534168 296.99876228139675 L205.98073984749215 296.9978010110591 L207.29649034156745 296.99616393939465 L208.6122408356428 296.99342824840915 L209.9279913297181 296.9889416840276 L211.24374182379347 296.98171919028687 L212.55949231786877 296.97030421007105 L213.87524281194408 296.9525877684967 L215.19099330601938 296.9255792350058 L216.50674380009474 296.8851243855075 L217.82249429417004 296.8255691365546 L219.1382447882454 296.73937102863084 L220.4539952823207 296.61666494133794 L221.76974577639606 296.44479419839314 L223.08549627047137 296.20782261272154 L224.40124676454667 295.8860465680292 L225.71699725862197 295.45552850740717 L227.03274775269733 294.8876740711593 L228.34849824677264 294.14887487984265 L229.664248740848 293.2002383283904 L230.97999923492335 291.99742583539546 L232.29574972899866 290.4906229993192 L233.61150022307396 288.62467005470614 L234.92725071714926 286.33938928142265 L236.24300121122462 283.5701569953013 L237.55875170529993 280.24877961408356 L238.87450219937529 276.3047429924142 L240.1902526934506 271.6669077424554 L241.50600318752595 266.2657162008006 L242.82175368160125 260.03595508143803 L244.13750417567655 252.9200790366305 L245.45325466975186 244.87204397567123 L246.76900516382722 235.86152770407278 L248.08475565790252 225.8783352159015 L249.40050615197788 214.936705909886 L250.71625664605318 203.07917153866316 L252.03200714012854 190.37956918454893 L253.34775763420384 176.94480439277703 L254.66350812827915 162.91499425113773 L255.9792586223545 148.4617024205916 L257.2950091164298 133.7841057007819 L258.61075961050517 119.10309619768628 L259.9265101045805 104.65351044536214 L261.2422605986558 90.6748686319927 L262.55801109273114 77.40118290185256 L263.87376158680644 65.05053299693756 L265.18951208088174 53.81519164172727 L266.5052625749571 43.8530961120959 L267.8210130690324 35.28139667186667 L269.13676356310776 28.17266420080574 L270.45251405718307 22.554114216998983 L271.76826455125837 18.40991878336706 L271.76826455125837 18.40991878336706 L273.08401504533373 15.68635892338932 L274.39976553940903 14.299256106010489 L275.7155160334844 14.14285714285711 L277.0312665275597 15.099178095595619 L278.347017021635 17.046776632194735 L279.66276751571036 19.86803736804211 L280.97851800978566 23.454313217628453 L282.29426850386096 27.708629986831227 L283.6100189979363 32.54606763623764 L284.9257694920116 37.89230142284299 L286.241519986087 43.681043479866645 L287.5572704801623 49.85121565997326 L288.8730209742376 56.34458981936075 L290.18877146831295 63.104378306808314 L291.50452196238825 70.07491112833011 L292.8202724564636 77.20218726261419 L294.136022950539 84.43482728622644 L294.136022950539 84.43482728622644 L295.4517734446143 91.72485088210007 L296.7675239386896 99.02778171168367 L298.0832744327649 106.3018193366228 L299.39902492684024 113.50614541784677 L300.71477542091554 120.59875610768259 L302.0305259149909 127.53444165513494 L303.3462764090662 134.26360097800068 L304.66202690314157 140.73246046229985 L305.9777773972168 146.88498911271998 L307.2935278912922 152.66643421292304 L308.60927838536753 158.02803278926527 L309.92502887944283 162.93217225251047 L311.24077937351814 167.35714210984415 L312.55652986759344 171.30066235815332 L313.8722803616688 174.78157593603868 L315.18803085574416 177.8394011563261 L316.5037813498194 180.5317855083045 L317.81953184389477 182.93021439713 L319.1352823379701 185.1145525237722 L320.4510328320454 187.16710214345065 L321.7667833261208 189.16684927149498 L323.0825338201961 191.1844570550903 L324.3982843142714 193.27839065097223 L325.71403480834675 195.4923605913587 L327.02978530242206 197.85408869494174 L328.34553579649736 200.3752594413357 L329.6612862905727 203.05243520241388 L330.977036784648 205.86868770247398 L332.2927872787234 208.79572103383924 L333.6085377727986 211.79631546463915 L334.924288266874 214.8269836147645 L336.24003876094935 217.84077906165663 L336.24003876094935 217.84077906165663 L337.55578925502465 220.7902150195486 L338.8715397491 223.6302299611699 L340.1872902431753 226.32108268844297 L341.5030407372506 228.83098825330444 L342.818791231326 231.13824378051763 L344.13454172540133 233.23256747387182 L345.4502922194766 235.11540712905742 L346.76604271355194 236.79907552262154 L348.08179320762724 238.30473046470922 L349.3975437017026 239.6594102491452 L350.7132941957779 240.89252030386075 L352.0290446898532 242.03229904483914 L353.34479518392857 243.10283195490095 L354.66054567800387 244.12211183421346 L355.9762961720792 245.1014637289482 L357.29204666615453 246.04639511932876 L358.60779716022984 246.9586465182242 L359.9235476543052 247.83896597893016 L361.23929814838056 248.68997059511733 L362.5550486424558 249.51842850575764 L363.87079913653116 250.33640760548724 L365.1865496306065 251.16097145598152 L366.5023001246818 252.01240992273523 L367.8180506187571 252.91130555053275 L369.13380111283243 253.87498823052277 L370.4495516069078 254.91406572688842 L371.76530210098315 256.0297080901456 L373.0810525950584 257.2122146929903 L374.39680308913375 258.441139581164 L375.71255358320906 259.68695214097943 L377.0283040772844 260.9139318008301 L378.3440545713597 262.08379596529267 L379.659805065435 263.1594770260331 L380.9755555595104 264.10850580478046 L382.29130605358574 264.9056046294859 L383.60705654766105 265.5343001707492 L384.92280704173635 265.9875798687758 L386.2385575358117 266.2677847001759 L387.554308029887 266.3860188157769 L388.87005852396237 266.3613502465032 L390.1858090180376 266.21998886248787 L391.501559512113 265.99449157558416 L392.81731000618834 265.7229054619035 L394.13306050026364 265.4476615543234 L395.44881099433894 265.21400775650835 L396.76456148841424 265.0678302608902 L398.0803119824896 265.05284696631907 L399.39606247656496 265.2073310442454 L400.7118129706402 265.56069304909647 L402.02756346471557 266.13036997152955 L403.34331395879093 266.91950431242736 L404.65906445286623 267.91583025340987 L405.9748149469416 269.0920257434833 L407.2905654410169 270.40756921967585 L408.6063159350922 271.8119029708386 L409.92206642916756 273.24850124845364 L411.23781692324286 274.65931220300376 L412.55356741731816 275.9890137611171 L413.8693179113935 277.18859754736025 L415.1850684054688 278.21795239351974 L416.5008188995442 279.04732300115865 L417.81656939361943 279.65772449829956 L419.1323198876948 280.0405563826953 L420.44807038177015 280.19674759498804 L421.76382087584545 280.1357643893891 L423.07957136992076 279.8747311764051 L424.3953218639961 279.437777049643 L425.7110723580714 278.85556498628597 L427.0268228521468 278.16482778527933 L428.34257334622214 277.40765951647734 L429.6583238402974 276.6303141174397 L430.97407433437274 275.8813451795676 L432.28982482844805 275.2090647633843 L433.6055753225234 274.65847075149753 L434.9213258165987 274.26795072249354 L436.237076310674 274.06617671497474 L437.5528268047494 274.06963211795875 L438.8685772988247 274.2811499236973 L440.1843277929 274.68970173786306 L441.50007828697534 275.2714880372049 L442.81582878105064 275.9921818317343 L444.131579275126 276.8100111931025 L445.4473297692013 277.6792639550589 L446.7630802632766 278.55377763111335 L448.07883075735197 279.39003762532224 L449.3945812514273 280.14962782988994 L450.71033174550263 280.80092812617073 L452.02608223957793 281.3200973463125 L453.34183273365323 281.69148654703633 L454.6575832277286 281.9076761372621 L455.97333372180395 281.96931707899273 L457.2890842158792 281.8848921476661 L458.60483470995456 281.67042110555843 L459.92058520402986 281.34904232371207 L461.2363356981052 280.95034006669744 L462.5520861921805 280.5092704366755 L463.8678366862558 280.0645764991781 L465.1835871803312 279.6566672350655 L466.49933767440655 279.3250466829642 L467.8150881684818 279.1054927616048 L469.13083866255715 279.02727264527795 L470.4465891566325 279.11072146407713 L471.7623396507078 279.36549217898283 L473.0780901447832 279.78970834017497 L474.3938406388584 280.3701321187288 L475.7095911329338 281.0833206671865 L477.02534162700914 281.8976114729444 L478.34109212108444 282.7756766634805 L479.65684261515975 283.6773344310749 L480.97259310923505 284.562309178914 L482.2883436033104 285.39268523695927 L483.60409409738577 286.1348867423218 L484.919844591461 286.76111722141655 L486.2355950855364 287.2502842581344 L487.55134557961173 287.58849904386386 L488.86709607368704 287.76926700511973 L490.18284656776234 287.79347320532537 L491.4985970618377 287.6692233352019 L492.814347555913 287.4115434048422 L494.13009804998836 287.041887464956 L495.44584854406367 286.58737017552585 L496.76159903813897 286.0796415671359 L498.0773495322143 285.5533581008841 L499.39310002628963 285.0442707705644 L500.708850520365 284.5870328741141 L502.02460101444024 284.21290764065395 L503.3403515085156 283.94760930300095 L504.65610200259096 283.8095252764413 L505.97185249666626 283.8085352565044 L507.28760299074156 283.9455692033713 L508.6033534848169 284.2129441115803 L509.9191039788922 284.5954096654343 L511.2348544729676 285.0717377261636 L512.5506049670429 285.6166290105071 L513.8663554611181 286.20269332820834 L515.1821059551935 286.8022880325004 L516.4978564492689 287.389063388769 L517.8136069433442 287.93914629376036 L519.1293574374195 288.431974884223 L520.4451079314948 288.850857512827 L521.7608584255702 289.1833578566234 L523.0766089196454 289.4215998006848 L524.3923594137208 289.5625466433974 L525.7081099077961 289.6082520203896 L527.0238604018714 289.56602176945313 L528.3396108959467 289.4483837115683 L529.6553613900221 289.27274886898226 L530.9711118840974 289.0606688029919 L532.2868623781727 288.8366470207743 L533.6026128722481 288.6265375311226 L534.9183633663233 288.4556449690605 L536.2341138603987 288.3467106826547 L537.549864354474 288.31801216547274 L538.8656148485494 288.38180898350214 L540.1813653426248 288.54333421908547 L541.4971158367 288.80046185846487 L542.8128663307754 289.14408973984223 L544.1286168248506 289.55918104464877 L545.444367318926 290.0263218810255 L546.7601178130013 290.5235924550394 L548.0758683070767 291.0285232955843 L549.3916188011519 291.51991774948544 L550.7073692952273 291.97936255444483 L552.0231197893027 292.39230966254223 L553.338870283378 292.7486819155353 L554.6546207774534 293.04302008547097 L555.9703712715286 293.27423918700526 L557.286121765604 293.44509205195334 L558.6018722596792 293.5614469330835 L559.9176227537546 293.63147668068575 L561.23337324783 293.66483610037835 L562.5491237419052 293.67187892355645 L563.8648742359806 293.6629432098101 L565.1806247300559 293.64771861271964 L566.4963752241312 293.6347024611286 L567.8121257182065 293.6307527203093 L569.1278762122819 293.6407510139945 L570.4436267063572 293.66739342416844 L571.7593772004325 293.71112663040515 L573.0751276945078 293.7702397507246 L574.3908781885831 293.8411081569021 L575.7066286826586 293.91856724427976 L577.0223791767338 293.99637613571167 L578.338129670809 294.0677186318368 L579.6538801648845 294.1256854985728 L580.9696306589598 294.1636903197952 L582.2853811530351 294.17578962858255 L583.6011316471105 294.1569029744499 L584.9168821411857 294.102954036921 L586.2326326352611 294.01097325814663 L587.5483831293365 293.8792101520066 L588.8641336234117 293.7072963874019 L590.1798841174871 293.4964793685118 L591.4956346115623 293.24991445285735 L592.8113851056378 292.9729692507639 L594.127135599713 292.67346425223747 L595.4428860937883 292.3617585370671 L596.7586365878637 292.05059336006576 L598.074387081939 291.7546318232132 L599.3901375760142 291.4896767806355 L600.7058880700897 291.27160425542644 L602.021638564165 291.115105552736 L603.3373890582403 291.0323765348553 L604.6531395523157 291.0319172991437 L605.9688900463909 291.11760365034337 L607.2846405404663 291.28816239494734 L608.6003910345416 291.5371302481168 L609.916141528617 291.8533102551219 L611.2318920226923 292.2216719097146 L612.5476425167676 292.6245834892886 L613.863393010843 293.0432270115049 L615.1791435049182 293.45903291916505 L616.4948939989935 293.85498337884223 L617.8106444930689 294.21666553559896 L619.1263949871442 294.53300146350443 L620.4421454812195 294.79663070581364 L621.7578959752949 295.00396556200184 L623.0736464693701 295.1549721672771 L624.3893969634455 295.25274857182865 L625.7051474575209 295.30297443898024 L627.0208979515962 295.313298443901 L628.3366484456715 295.29271358683843 L629.6523989397468 295.25095264380235 L630.9681494338222 295.1979204733097 L632.2838999278974 295.14316998410527 L633.5996504219727 295.09542535895287 L634.9154009160482 295.06215874439056 L636.2311514101234 295.04923262700424 L637.5469019041988 295.06062630956234 L638.8626523982741 295.098268175626 L640.1784028923494 295.16199362301313 L641.4941533864247 295.2496409684046 L642.8099038805001 295.35728521626845 L644.1256543745754 295.4795946297792 L645.4414048686507 295.61028055225006 L646.757155362726 295.74259986482775 L648.0729058568014 295.8698640076313 L649.3886563508767 295.9859095453968 L650.704406844952 296.0854923322136 L652.0201573390274 296.1645787599772 L653.3359078331026 296.2205210259941 L654.6516583271781 296.2521164220478 L655.9674088212533 296.2595613934399 L657.2831593153286 296.24431841169246 L658.598909809404 296.2089173074424 L659.9146603034793 296.15671311988643 L661.2304107975546 296.0916206815574 L662.5461612916299 296.01784313459984 L663.8619117857053 295.9396082776077 L665.1776622797806 295.86092367724854 L666.4934127738559 295.78535911978406 L667.8091632679312 295.7158632240607 L669.1249137620066 295.65461971459695 L670.4406642560818 295.6029477053291 L671.7564147501573 295.56124910349513 L673.0721652442326 295.5290046756035 L674.3879157383078 295.5048182673753 L675.7036662323832 295.4865061126577 L677.0194167264585 295.4712252726098 L678.3351672205338 295.45563242391955 L679.6509177146091 295.4360620913489 L680.9666682086845 295.40871272675054 L682.2824187027599 295.3698303862585 L683.5981691968351 295.31588335699377 L684.9139196909105 295.2437264769119 L686.2296701849858 295.15075983774597 L687.5454206790611 295.035091171612 L688.8611711731365 294.8957123731187 L690.1769216672118 294.73269659079864 L691.492672161287 294.5474125542263 L692.8084226553625 294.3427383875355 L694.1241731494378 294.1232410288477 L695.439923643513 293.89527388700833 L696.7556741375885 293.66693934748594 L698.0714246316637 293.4478681578702 L699.3871751257391 293.2487863551089 L700.7029256198143 293.08087088218844 L702.0186761138897 292.954932699858 L703.334426607965 292.8805037545379 L704.6501771020403 292.86493329578985 L705.9659275961158 292.9126123828534 L705.9659275961158 297.0 L704.6501771020403 297.0 L703.334426607965 297.0 L702.0186761138897 297.0 L700.7029256198143 297.0 L699.3871751257391 297.0 L698.0714246316637 297.0 L696.7556741375885 297.0 L695.439923643513 297.0 L694.1241731494378 297.0 L692.8084226553625 297.0 L691.492672161287 297.0 L690.1769216672118 297.0 L688.8611711731365 297.0 L687.5454206790611 297.0 L686.2296701849858 297.0 L684.9139196909105 297.0 L683.5981691968351 297.0 L682.2824187027599 297.0 L680.9666682086845 297.0 L679.6509177146091 297.0 L678.3351672205338 297.0 L677.0194167264585 297.0 L675.7036662323832 297.0 L674.3879157383078 297.0 L673.0721652442326 297.0 L671.7564147501573 297.0 L670.4406642560818 297.0 L669.1249137620066 297.0 L667.8091632679312 297.0 L666.4934127738559 297.0 L665.1776622797806 297.0 L663.8619117857053 297.0 L662.5461612916299 297.0 L661.2304107975546 297.0 L659.9146603034793 297.0 L658.598909809404 297.0 L657.2831593153286 297.0 L655.9674088212533 297.0 L654.6516583271781 297.0 L653.3359078331026 297.0 L652.0201573390274 297.0 L650.704406844952 297.0 L649.3886563508767 297.0 L648.0729058568014 297.0 L646.757155362726 297.0 L645.4414048686507 297.0 L644.1256543745754 297.0 L642.8099038805001 297.0 L641.4941533864247 297.0 L640.1784028923494 297.0 L638.8626523982741 297.0 L637.5469019041988 297.0 L636.2311514101234 297.0 L634.9154009160482 297.0 L633.5996504219727 297.0 L632.2838999278974 297.0 L630.9681494338222 297.0 L629.6523989397468 297.0 L628.3366484456715 297.0 L627.0208979515962 297.0 L625.7051474575209 297.0 L624.3893969634455 297.0 L623.0736464693701 297.0 L621.7578959752949 297.0 L620.4421454812195 297.0 L619.1263949871442 297.0 L617.8106444930689 297.0 L616.4948939989935 297.0 L615.1791435049182 297.0 L613.863393010843 297.0 L612.5476425167676 297.0 L611.2318920226923 297.0 L609.916141528617 297.0 L608.6003910345416 297.0 L607.2846405404663 297.0 L605.9688900463909 297.0 L604.6531395523157 297.0 L603.3373890582403 297.0 L602.021638564165 297.0 L600.7058880700897 297.0 L599.3901375760142 297.0 L598.074387081939 297.0 L596.7586365878637 297.0 L595.4428860937883 297.0 L594.127135599713 297.0 L592.8113851056378 297.0 L591.4956346115623 297.0 L590.1798841174871 297.0 L588.8641336234117 297.0 L587.5483831293365 297.0 L586.2326326352611 297.0 L584.9168821411857 297.0 L583.6011316471105 297.0 L582.2853811530351 297.0 L580.9696306589598 297.0 L579.6538801648845 297.0 L578.338129670809 297.0 L577.0223791767338 297.0 L575.7066286826586 297.0 L574.3908781885831 297.0 L573.0751276945078 297.0 L571.7593772004325 297.0 L570.4436267063572 297.0 L569.1278762122819 297.0 L567.8121257182065 297.0 L566.4963752241312 297.0 L565.1806247300559 297.0 L563.8648742359806 297.0 L562.5491237419052 297.0 L561.23337324783 297.0 L559.9176227537546 297.0 L558.6018722596792 297.0 L557.286121765604 297.0 L555.9703712715286 297.0 L554.6546207774534 297.0 L553.338870283378 297.0 L552.0231197893027 297.0 L550.7073692952273 297.0 L549.3916188011519 297.0 L548.0758683070767 297.0 L546.7601178130013 297.0 L545.444367318926 297.0 L544.1286168248506 297.0 L542.8128663307754 297.0 L541.4971158367 297.0 L540.1813653426248 297.0 L538.8656148485494 297.0 L537.549864354474 297.0 L536.2341138603987 297.0 L534.9183633663233 297.0 L533.6026128722481 297.0 L532.2868623781727 297.0 L530.9711118840974 297.0 L529.6553613900221 297.0 L528.3396108959467 297.0 L527.0238604018714 297.0 L525.7081099077961 297.0 L524.3923594137208 297.0 L523.0766089196454 297.0 L521.7608584255702 297.0 L520.4451079314948 297.0 L519.1293574374195 297.0 L517.8136069433442 297.0 L516.4978564492689 297.0 L515.1821059551935 297.0 L513.8663554611181 297.0 L512.5506049670429 297.0 L511.2348544729676 297.0 L509.9191039788922 297.0 L508.6033534848169 297.0 L507.28760299074156 297.0 L505.97185249666626 297.0 L504.65610200259096 297.0 L503.3403515085156 297.0 L502.02460101444024 297.0 L500.708850520365 297.0 L499.39310002628963 297.0 L498.0773495322143 297.0 L496.76159903813897 297.0 L495.44584854406367 297.0 L494.13009804998836 297.0 L492.814347555913 297.0 L491.4985970618377 297.0 L490.18284656776234 297.0 L488.86709607368704 297.0 L487.55134557961173 297.0 L486.2355950855364 297.0 L484.919844591461 297.0 L483.60409409738577 297.0 L482.2883436033104 297.0 L480.97259310923505 297.0 L479.65684261515975 297.0 L478.34109212108444 297.0 L477.02534162700914 297.0 L475.7095911329338 297.0 L474.3938406388584 297.0 L473.0780901447832 297.0 L471.7623396507078 297.0 L470.4465891566325 297.0 L469.13083866255715 297.0 L467.8150881684818 297.0 L466.49933767440655 297.0 L465.1835871803312 297.0 L463.8678366862558 297.0 L462.5520861921805 297.0 L461.2363356981052 297.0 L459.92058520402986 297.0 L458.60483470995456 297.0 L457.2890842158792 297.0 L455.97333372180395 297.0 L454.6575832277286 297.0 L453.34183273365323 297.0 L452.02608223957793 297.0 L450.71033174550263 297.0 L449.3945812514273 297.0 L448.07883075735197 297.0 L446.7630802632766 297.0 L445.4473297692013 297.0 L444.131579275126 297.0 L442.81582878105064 297.0 L441.50007828697534 297.0 L440.1843277929 297.0 L438.8685772988247 297.0 L437.5528268047494 297.0 L436.237076310674 297.0 L434.9213258165987 297.0 L433.6055753225234 297.0 L432.28982482844805 297.0 L430.97407433437274 297.0 L429.6583238402974 297.0 L428.34257334622214 297.0 L427.0268228521468 297.0 L425.7110723580714 297.0 L424.3953218639961 297.0 L423.07957136992076 297.0 L421.76382087584545 297.0 L420.44807038177015 297.0 L419.1323198876948 297.0 L417.81656939361943 297.0 L416.5008188995442 297.0 L415.1850684054688 297.0 L413.8693179113935 297.0 L412.55356741731816 297.0 L411.23781692324286 297.0 L409.92206642916756 297.0 L408.6063159350922 297.0 L407.2905654410169 297.0 L405.9748149469416 297.0 L404.65906445286623 297.0 L403.34331395879093 297.0 L402.02756346471557 297.0 L400.7118129706402 297.0 L399.39606247656496 297.0 L398.0803119824896 297.0 L396.76456148841424 297.0 L395.44881099433894 297.0 L394.13306050026364 297.0 L392.81731000618834 297.0 L391.501559512113 297.0 L390.1858090180376 297.0 L388.87005852396237 297.0 L387.554308029887 297.0 L386.2385575358117 297.0 L384.92280704173635 297.0 L383.60705654766105 297.0 L382.29130605358574 297.0 L380.9755555595104 297.0 L379.659805065435 297.0 L378.3440545713597 297.0 L377.0283040772844 297.0 L375.71255358320906 297.0 L374.39680308913375 297.0 L373.0810525950584 297.0 L371.76530210098315 297.0 L370.4495516069078 297.0 L369.13380111283243 297.0 L367.8180506187571 297.0 L366.5023001246818 297.0 L365.1865496306065 297.0 L363.87079913653116 297.0 L362.5550486424558 297.0 L361.23929814838056 297.0 L359.9235476543052 297.0 L358.60779716022984 297.0 L357.29204666615453 297.0 L355.9762961720792 297.0 L354.66054567800387 297.0 L353.34479518392857 297.0 L352.0290446898532 297.0 L350.7132941957779 297.0 L349.3975437017026 297.0 L348.08179320762724 297.0 L346.76604271355194 297.0 L345.4502922194766 297.0 L344.13454172540133 297.0 L342.818791231326 297.0 L341.5030407372506 297.0 L340.1872902431753 297.0 L338.8715397491 297.0 L337.55578925502465 297.0 L336.24003876094935 297.0 L336.24003876094935 297.0 L334.924288266874 297.0 L333.6085377727986 297.0 L332.2927872787234 297.0 L330.977036784648 297.0 L329.6612862905727 297.0 L328.34553579649736 297.0 L327.02978530242206 297.0 L325.71403480834675 297.0 L324.3982843142714 297.0 L323.0825338201961 297.0 L321.7667833261208 297.0 L320.4510328320454 297.0 L319.1352823379701 297.0 L317.81953184389477 297.0 L316.5037813498194 297.0 L315.18803085574416 297.0 L313.8722803616688 297.0 L312.55652986759344 297.0 L311.24077937351814 297.0 L309.92502887944283 297.0 L308.60927838536753 297.0 L307.2935278912922 297.0 L305.9777773972168 297.0 L304.66202690314157 297.0 L303.3462764090662 297.0 L302.0305259149909 297.0 L300.71477542091554 297.0 L299.39902492684024 297.0 L298.0832744327649 297.0 L296.7675239386896 297.0 L295.4517734446143 297.0 L294.136022950539 297.0 L294.136022950539 297.0 L292.8202724564636 297.0 L291.50452196238825 297.0 L290.18877146831295 297.0 L288.8730209742376 297.0 L287.5572704801623 297.0 L286.241519986087 297.0 L284.9257694920116 297.0 L283.6100189979363 297.0 L282.29426850386096 297.0 L280.97851800978566 297.0 L279.66276751571036 297.0 L278.347017021635 297.0 L277.0312665275597 297.0 L275.7155160334844 297.0 L274.39976553940903 297.0 L273.08401504533373 297.0 L271.76826455125837 297.0 L271.76826455125837 297.0 L270.45251405718307 297.0 L269.13676356310776 297.0 L267.8210130690324 297.0 L266.5052625749571 297.0 L265.18951208088174 297.0 L263.87376158680644 297.0 L262.55801109273114 297.0 L261.2422605986558 297.0 L259.9265101045805 297.0 L258.61075961050517 297.0 L257.2950091164298 297.0 L255.9792586223545 297.0 L254.66350812827915 297.0 L253.34775763420384 297.0 L252.03200714012854 297.0 L250.71625664605318 297.0 L249.40050615197788 297.0 L248.08475565790252 297.0 L246.76900516382722 297.0 L245.45325466975186 297.0 L244.13750417567655 297.0 L242.82175368160125 297.0 L241.50600318752595 297.0 L240.1902526934506 297.0 L238.87450219937529 297.0 L237.55875170529993 297.0 L236.24300121122462 297.0 L234.92725071714926 297.0 L233.61150022307396 297.0 L232.29574972899866 297.0 L230.97999923492335 297.0 L229.664248740848 297.0 L228.34849824677264 297.0 L227.03274775269733 297.0 L225.71699725862197 297.0 L224.40124676454667 297.0 L223.08549627047137 297.0 L221.76974577639606 297.0 L220.4539952823207 297.0 L219.1382447882454 297.0 L217.82249429417004 297.0 L216.50674380009474 297.0 L215.19099330601938 297.0 L213.87524281194408 297.0 L212.55949231786877 297.0 L211.24374182379347 297.0 L209.9279913297181 297.0 L208.6122408356428 297.0 L207.29649034156745 297.0 L205.98073984749215 297.0 L204.6649893534168 297.0 L203.34923885934148 297.0 L202.03348836526618 297.0 L200.71773787119082 297.0 L199.40198737711552 297.0 L198.08623688304016 297.0 L196.77048638896485 297.0 L195.45473589488955 297.0 L194.1389854008142 297.0 L192.8232349067389 297.0 L191.5074844126636 297.0 L190.19173391858823 297.0 L188.87598342451292 297.0 L187.56023293043756 297.0 L186.24448243636226 297.0 L184.92873194228696 297.0 L183.6129814482116 297.0 L182.2972309541363 297.0 L180.98148046006094 297.0 L179.66572996598563 297.0 L178.34997947191033 297.0 L177.03422897783497 297.0 L175.71847848375967 297.0 L174.40272798968437 297.0 L173.086977495609 297.0 L171.7712270015337 297.0 L170.45547650745834 297.0 L169.13972601338304 297.0 L167.82397551930774 297.0 L166.50822502523238 297.0 L165.19247453115707 297.0 L163.87672403708177 297.0 L162.5609735430064 297.0 L161.24522304893108 297.0 L159.92947255485575 297.0 L158.61372206078045 297.0 L157.29797156670512 297.0 L155.98222107262978 297.0 L154.66647057855448 297.0 L153.35072008447915 297.0 L152.03496959040382 297.0 L150.71921909632846 297.0 L149.40346860225316 297.0 L148.08771810817785 297.0 L146.7719676141025 297.0 L145.4562171200272 297.0 L144.14046662595186 297.0 L142.82471613187653 297.0 L141.50896563780123 297.0 L140.19321514372587 297.0 L138.87746464965056 297.0 L137.56171415557526 297.0 L136.2459636614999 297.0 L134.9302131674246 297.0 L133.61446267334927 297.0 L132.29871217927393 297.0 L130.9829616851986 297.0 L129.66721119112327 297.0 L128.35146069704797 297.0 L127.03571020297264 297.0 L125.7199597088973 297.0 L124.40420921482198 297.0 L123.08845872074666 297.0 L121.77270822667134 297.0 L120.45695773259601 297.0 L119.14120723852068 297.0 L117.82545674444536 297.0 L116.50970625037004 297.0 L115.19395575629471 297.0 L113.87820526221938 297.0 L112.56245476814406 297.0 L111.24670427406875 297.0 L109.93095377999342 297.0 L108.61520328591807 297.0 L107.29945279184275 297.0 L105.98370229776744 297.0 L104.6679518036921 297.0 L103.35220130961677 297.0 L102.03645081554146 297.0 L100.72070032146614 297.0 L99.40494982739081 297.0 L98.08919933331548 297.0 L96.77344883924016 297.0 L95.45769834516483 297.0 L94.14194785108951 297.0 L92.82619735701418 297.0 L91.51044686293886 297.0 L90.19469636886353 297.0 L88.8789458747882 297.0 L87.56319538071288 297.0 L86.24744488663757 297.0 L84.93169439256224 297.0 L83.6159438984869 297.0 L82.30019340441157 297.0 L80.98444291033626 297.0 L79.66869241626094 297.0 L78.35294192218561 297.0 L77.03719142811028 297.0 L75.72144093403496 297.0 L74.40569043995964 297.0 L73.08993994588431 297.0 L71.77418945180898 297.0 L70.45843895773365 297.0 L69.14268846365833 297.0 L67.82693796958301 297.0 L66.51118747550768 297.0 L65.19543698143235 297.0 L63.879686487357034 297.0 L62.5639359932817 297.0 L61.248185499206386 297.0 L59.932435005131055 297.0 L58.61668451105574 297.0 L57.300934016980406 297.0 L55.98518352290508 297.0 L54.66943302882976 297.0 L53.353682534754434 297.0 L52.03793204067911 297.0 L50.72218154660378 297.0 L49.40643105252846 297.0 L48.09068055845313 297.0 L46.774930064377806 297.0 L45.45917957030248 297.0 L44.14342907622716 297.0 L42.82767858215183 297.0 L41.51192808807651 297.0 L40.196177594001185 297.0 L38.88042709992585 297.0 L37.56467660585053 297.0 L36.248926111775205 297.0 L34.93317561769988 297.0 L33.61742512362456 297.0 Z" fill="rgb(0,0,255)" stroke-width="1.0" fill-opacity="0.5019607843137255">
                </path>
              </g>
              <g>
                <path d="M33.61742512362456 297.0 L33.61742512362456 297.0 L34.93317561769988 297.0 L36.248926111775205 297.0 L37.56467660585053 297.0 L38.88042709992585 297.0 L40.196177594001185 297.0 L41.51192808807651 297.0 L42.82767858215183 297.0 L44.14342907622716 297.0 L45.45917957030248 297.0 L46.774930064377806 297.0 L48.09068055845313 297.0 L49.40643105252846 297.0 L50.72218154660378 297.0 L52.03793204067911 297.0 L53.353682534754434 297.0 L54.66943302882976 297.0 L55.98518352290508 297.0 L57.300934016980406 297.0 L58.61668451105574 297.0 L59.932435005131055 297.0 L61.248185499206386 297.0 L62.5639359932817 297.0 L63.879686487357034 297.0 L65.19543698143235 297.0 L66.51118747550768 297.0 L67.82693796958301 297.0 L69.14268846365833 297.0 L70.45843895773365 297.0 L71.77418945180898 297.0 L73.08993994588431 297.0 L74.40569043995964 297.0 L75.72144093403496 297.0 L77.03719142811028 297.0 L78.35294192218561 297.0 L79.66869241626094 297.0 L80.98444291033626 297.0 L82.30019340441157 297.0 L83.6159438984869 297.0 L84.93169439256224 297.0 L86.24744488663757 297.0 L87.56319538071288 297.0 L88.8789458747882 297.0 L90.19469636886353 297.0 L91.51044686293886 297.0 L92.82619735701418 297.0 L94.14194785108951 297.0 L95.45769834516483 297.0 L96.77344883924016 297.0 L98.08919933331548 297.0 L99.40494982739081 297.0 L100.72070032146614 297.0 L102.03645081554146 297.0 L103.35220130961677 297.0 L104.6679518036921 297.0 L105.98370229776744 297.0 L107.29945279184275 297.0 L108.61520328591807 297.0 L109.93095377999342 297.0 L111.24670427406875 297.0 L112.56245476814406 297.0 L113.87820526221938 297.0 L115.19395575629471 297.0 L116.50970625037004 297.0 L117.82545674444536 297.0 L119.14120723852068 297.0 L120.45695773259601 297.0 L121.77270822667134 297.0 L123.08845872074666 297.0 L124.40420921482198 297.0 L125.7199597088973 297.0 L127.03571020297264 297.0 L128.35146069704797 297.0 L129.66721119112327 297.0 L130.9829616851986 297.0 L132.29871217927393 297.0 L133.61446267334927 297.0 L134.9302131674246 297.0 L136.2459636614999 297.0 L137.56171415557526 297.0 L138.87746464965056 297.0 L140.19321514372587 297.0 L141.50896563780123 297.0 L142.82471613187653 297.0 L144.14046662595186 297.0 L145.4562171200272 297.0 L146.7719676141025 297.0 L148.08771810817785 297.0 L149.40346860225316 297.0 L150.71921909632846 297.0 L152.03496959040382 297.0 L153.35072008447915 297.0 L154.66647057855448 297.0 L155.98222107262978 297.0 L157.29797156670512 297.0 L158.61372206078045 297.0 L159.92947255485575 297.0 L161.24522304893108 297.0 L162.5609735430064 297.0 L163.87672403708177 297.0 L165.19247453115707 297.0 L166.50822502523238 297.0 L167.82397551930774 296.99999999999994 L169.13972601338304 296.99999999999983 L170.45547650745834 296.9999999999995 L171.7712270015337 296.9999999999986 L173.086977495609 296.9999999999959 L174.40272798968437 296.9999999999884 L175.71847848375967 296.99999999996794 L177.03422897783497 296.999999999913 L178.34997947191033 296.99999999976836 L179.66572996598563 296.99999999939536 L180.98148046006094 296.99999999845255 L182.2972309541363 296.99999999611697 L183.6129814482116 296.9999999904456 L184.92873194228696 296.9999999769473 L186.24448243636226 296.9999999454574 L187.56023293043756 296.9999998734494 L188.87598342451292 296.99999971204613 L190.19173391858823 296.99999935741437 L191.5074844126636 296.9999985935989 L192.8232349067389 296.99999698088055 L194.1389854008142 296.99999364274765 L195.45473589488955 296.9999868688021 L196.77048638896485 296.99997339180135 L198.08623688304016 296.9999471023452 L199.40198737711552 296.99989681794665 L200.71773787119082 296.999802503479 L202.03348836526618 296.99962902289184 L203.34923885934148 296.9993160623625 L204.6649893534168 296.99876228139675 L205.98073984749215 296.9978010110591 L207.29649034156745 296.99616393939465 L208.6122408356428 296.99342824840915 L209.9279913297181 296.9889416840276 L211.24374182379347 296.98171919028687 L212.55949231786877 296.97030421007105 L213.87524281194408 296.9525877684967 L215.19099330601938 296.9255792350058 L216.50674380009474 296.8851243855075 L217.82249429417004 296.8255691365546 L219.1382447882454 296.73937102863084 L220.4539952823207 296.61666494133794 L221.76974577639606 296.44479419839314 L223.08549627047137 296.20782261272154 L224.40124676454667 295.8860465680292 L225.71699725862197 295.45552850740717 L227.03274775269733 294.8876740711593 L228.34849824677264 294.14887487984265 L229.664248740848 293.2002383283904 L230.97999923492335 291.99742583539546 L232.29574972899866 290.4906229993192 L233.61150022307396 288.62467005470614 L234.92725071714926 286.33938928142265 L236.24300121122462 283.5701569953013 L237.55875170529993 280.24877961408356 L238.87450219937529 276.3047429924142 L240.1902526934506 271.6669077424554 L241.50600318752595 266.2657162008006 L242.82175368160125 260.03595508143803 L244.13750417567655 252.9200790366305 L245.45325466975186 244.87204397567123 L246.76900516382722 235.86152770407278 L248.08475565790252 225.8783352159015 L249.40050615197788 214.936705909886 L250.71625664605318 203.07917153866316 L252.03200714012854 190.37956918454893 L253.34775763420384 176.94480439277703 L254.66350812827915 162.91499425113773 L255.9792586223545 148.4617024205916 L257.2950091164298 133.7841057007819 L258.61075961050517 119.10309619768628 L259.9265101045805 104.65351044536214 L261.2422605986558 90.6748686319927 L262.55801109273114 77.40118290185256 L263.87376158680644 65.05053299693756 L265.18951208088174 53.81519164172727 L266.5052625749571 43.8530961120959 L267.8210130690324 35.28139667186667 L269.13676356310776 28.17266420080574 L270.45251405718307 22.554114216998983 L271.76826455125837 18.40991878336706 L271.76826455125837 18.40991878336706 L273.08401504533373 15.68635892338932 L274.39976553940903 14.299256106010489 L275.7155160334844 14.14285714285711 L277.0312665275597 15.099178095595619 L278.347017021635 17.046776632194735 L279.66276751571036 19.86803736804211 L280.97851800978566 23.454313217628453 L282.29426850386096 27.708629986831227 L283.6100189979363 32.54606763623764 L284.9257694920116 37.89230142284299 L286.241519986087 43.681043479866645 L287.5572704801623 49.85121565997326 L288.8730209742376 56.34458981936075 L290.18877146831295 63.104378306808314 L291.50452196238825 70.07491112833011 L292.8202724564636 77.20218726261419 L294.136022950539 84.43482728622644 L294.136022950539 84.43482728622644 L295.4517734446143 91.72485088210007 L296.7675239386896 99.02778171168367 L298.0832744327649 106.3018193366228 L299.39902492684024 113.50614541784677 L300.71477542091554 120.59875610768259 L302.0305259149909 127.53444165513494 L303.3462764090662 134.26360097800068 L304.66202690314157 140.73246046229985 L305.9777773972168 146.88498911271998 L307.2935278912922 152.66643421292304 L308.60927838536753 158.02803278926527 L309.92502887944283 162.93217225251047 L311.24077937351814 167.35714210984415 L312.55652986759344 171.30066235815332 L313.8722803616688 174.78157593603868 L315.18803085574416 177.8394011563261 L316.5037813498194 180.5317855083045 L317.81953184389477 182.93021439713 L319.1352823379701 185.1145525237722 L320.4510328320454 187.16710214345065 L321.7667833261208 189.16684927149498 L323.0825338201961 191.1844570550903 L324.3982843142714 193.27839065097223 L325.71403480834675 195.4923605913587 L327.02978530242206 197.85408869494174 L328.34553579649736 200.3752594413357 L329.6612862905727 203.05243520241388 L330.977036784648 205.86868770247398 L332.2927872787234 208.79572103383924 L333.6085377727986 211.79631546463915 L334.924288266874 214.8269836147645 L336.24003876094935 217.84077906165663 L336.24003876094935 217.84077906165663 L337.55578925502465 220.7902150195486 L338.8715397491 223.6302299611699 L340.1872902431753 226.32108268844297 L341.5030407372506 228.83098825330444 L342.818791231326 231.13824378051763 L344.13454172540133 233.23256747387182 L345.4502922194766 235.11540712905742 L346.76604271355194 236.79907552262154 L348.08179320762724 238.30473046470922 L349.3975437017026 239.6594102491452 L350.7132941957779 240.89252030386075 L352.0290446898532 242.03229904483914 L353.34479518392857 243.10283195490095 L354.66054567800387 244.12211183421346 L355.9762961720792 245.1014637289482 L357.29204666615453 246.04639511932876 L358.60779716022984 246.9586465182242 L359.9235476543052 247.83896597893016 L361.23929814838056 248.68997059511733 L362.5550486424558 249.51842850575764 L363.87079913653116 250.33640760548724 L365.1865496306065 251.16097145598152 L366.5023001246818 252.01240992273523 L367.8180506187571 252.91130555053275 L369.13380111283243 253.87498823052277 L370.4495516069078 254.91406572688842 L371.76530210098315 256.0297080901456 L373.0810525950584 257.2122146929903 L374.39680308913375 258.441139581164 L375.71255358320906 259.68695214097943 L377.0283040772844 260.9139318008301 L378.3440545713597 262.08379596529267 L379.659805065435 263.1594770260331 L380.9755555595104 264.10850580478046 L382.29130605358574 264.9056046294859 L383.60705654766105 265.5343001707492 L384.92280704173635 265.9875798687758 L386.2385575358117 266.2677847001759 L387.554308029887 266.3860188157769 L388.87005852396237 266.3613502465032 L390.1858090180376 266.21998886248787 L391.501559512113 265.99449157558416 L392.81731000618834 265.7229054619035 L394.13306050026364 265.4476615543234 L395.44881099433894 265.21400775650835 L396.76456148841424 265.0678302608902 L398.0803119824896 265.05284696631907 L399.39606247656496 265.2073310442454 L400.7118129706402 265.56069304909647 L402.02756346471557 266.13036997152955 L403.34331395879093 266.91950431242736 L404.65906445286623 267.91583025340987 L405.9748149469416 269.0920257434833 L407.2905654410169 270.40756921967585 L408.6063159350922 271.8119029708386 L409.92206642916756 273.24850124845364 L411.23781692324286 274.65931220300376 L412.55356741731816 275.9890137611171 L413.8693179113935 277.18859754736025 L415.1850684054688 278.21795239351974 L416.5008188995442 279.04732300115865 L417.81656939361943 279.65772449829956 L419.1323198876948 280.0405563826953 L420.44807038177015 280.19674759498804 L421.76382087584545 280.1357643893891 L423.07957136992076 279.8747311764051 L424.3953218639961 279.437777049643 L425.7110723580714 278.85556498628597 L427.0268228521468 278.16482778527933 L428.34257334622214 277.40765951647734 L429.6583238402974 276.6303141174397 L430.97407433437274 275.8813451795676 L432.28982482844805 275.2090647633843 L433.6055753225234 274.65847075149753 L434.9213258165987 274.26795072249354 L436.237076310674 274.06617671497474 L437.5528268047494 274.06963211795875 L438.8685772988247 274.2811499236973 L440.1843277929 274.68970173786306 L441.50007828697534 275.2714880372049 L442.81582878105064 275.9921818317343 L444.131579275126 276.8100111931025 L445.4473297692013 277.6792639550589 L446.7630802632766 278.55377763111335 L448.07883075735197 279.39003762532224 L449.3945812514273 280.14962782988994 L450.71033174550263 280.80092812617073 L452.02608223957793 281.3200973463125 L453.34183273365323 281.69148654703633 L454.6575832277286 281.9076761372621 L455.97333372180395 281.96931707899273 L457.2890842158792 281.8848921476661 L458.60483470995456 281.67042110555843 L459.92058520402986 281.34904232371207 L461.2363356981052 280.95034006669744 L462.5520861921805 280.5092704366755 L463.8678366862558 280.0645764991781 L465.1835871803312 279.6566672350655 L466.49933767440655 279.3250466829642 L467.8150881684818 279.1054927616048 L469.13083866255715 279.02727264527795 L470.4465891566325 279.11072146407713 L471.7623396507078 279.36549217898283 L473.0780901447832 279.78970834017497 L474.3938406388584 280.3701321187288 L475.7095911329338 281.0833206671865 L477.02534162700914 281.8976114729444 L478.34109212108444 282.7756766634805 L479.65684261515975 283.6773344310749 L480.97259310923505 284.562309178914 L482.2883436033104 285.39268523695927 L483.60409409738577 286.1348867423218 L484.919844591461 286.76111722141655 L486.2355950855364 287.2502842581344 L487.55134557961173 287.58849904386386 L488.86709607368704 287.76926700511973 L490.18284656776234 287.79347320532537 L491.4985970618377 287.6692233352019 L492.814347555913 287.4115434048422 L494.13009804998836 287.041887464956 L495.44584854406367 286.58737017552585 L496.76159903813897 286.0796415671359 L498.0773495322143 285.5533581008841 L499.39310002628963 285.0442707705644 L500.708850520365 284.5870328741141 L502.02460101444024 284.21290764065395 L503.3403515085156 283.94760930300095 L504.65610200259096 283.8095252764413 L505.97185249666626 283.8085352565044 L507.28760299074156 283.9455692033713 L508.6033534848169 284.2129441115803 L509.9191039788922 284.5954096654343 L511.2348544729676 285.0717377261636 L512.5506049670429 285.6166290105071 L513.8663554611181 286.20269332820834 L515.1821059551935 286.8022880325004 L516.4978564492689 287.389063388769 L517.8136069433442 287.93914629376036 L519.1293574374195 288.431974884223 L520.4451079314948 288.850857512827 L521.7608584255702 289.1833578566234 L523.0766089196454 289.4215998006848 L524.3923594137208 289.5625466433974 L525.7081099077961 289.6082520203896 L527.0238604018714 289.56602176945313 L528.3396108959467 289.4483837115683 L529.6553613900221 289.27274886898226 L530.9711118840974 289.0606688029919 L532.2868623781727 288.8366470207743 L533.6026128722481 288.6265375311226 L534.9183633663233 288.4556449690605 L536.2341138603987 288.3467106826547 L537.549864354474 288.31801216547274 L538.8656148485494 288.38180898350214 L540.1813653426248 288.54333421908547 L541.4971158367 288.80046185846487 L542.8128663307754 289.14408973984223 L544.1286168248506 289.55918104464877 L545.444367318926 290.0263218810255 L546.7601178130013 290.5235924550394 L548.0758683070767 291.0285232955843 L549.3916188011519 291.51991774948544 L550.7073692952273 291.97936255444483 L552.0231197893027 292.39230966254223 L553.338870283378 292.7486819155353 L554.6546207774534 293.04302008547097 L555.9703712715286 293.27423918700526 L557.286121765604 293.44509205195334 L558.6018722596792 293.5614469330835 L559.9176227537546 293.63147668068575 L561.23337324783 293.66483610037835 L562.5491237419052 293.67187892355645 L563.8648742359806 293.6629432098101 L565.1806247300559 293.64771861271964 L566.4963752241312 293.6347024611286 L567.8121257182065 293.6307527203093 L569.1278762122819 293.6407510139945 L570.4436267063572 293.66739342416844 L571.7593772004325 293.71112663040515 L573.0751276945078 293.7702397507246 L574.3908781885831 293.8411081569021 L575.7066286826586 293.91856724427976 L577.0223791767338 293.99637613571167 L578.338129670809 294.0677186318368 L579.6538801648845 294.1256854985728 L580.9696306589598 294.1636903197952 L582.2853811530351 294.17578962858255 L583.6011316471105 294.1569029744499 L584.9168821411857 294.102954036921 L586.2326326352611 294.01097325814663 L587.5483831293365 293.8792101520066 L588.8641336234117 293.7072963874019 L590.1798841174871 293.4964793685118 L591.4956346115623 293.24991445285735 L592.8113851056378 292.9729692507639 L594.127135599713 292.67346425223747 L595.4428860937883 292.3617585370671 L596.7586365878637 292.05059336006576 L598.074387081939 291.7546318232132 L599.3901375760142 291.4896767806355 L600.7058880700897 291.27160425542644 L602.021638564165 291.115105552736 L603.3373890582403 291.0323765348553 L604.6531395523157 291.0319172991437 L605.9688900463909 291.11760365034337 L607.2846405404663 291.28816239494734 L608.6003910345416 291.5371302481168 L609.916141528617 291.8533102551219 L611.2318920226923 292.2216719097146 L612.5476425167676 292.6245834892886 L613.863393010843 293.0432270115049 L615.1791435049182 293.45903291916505 L616.4948939989935 293.85498337884223 L617.8106444930689 294.21666553559896 L619.1263949871442 294.53300146350443 L620.4421454812195 294.79663070581364 L621.7578959752949 295.00396556200184 L623.0736464693701 295.1549721672771 L624.3893969634455 295.25274857182865 L625.7051474575209 295.30297443898024 L627.0208979515962 295.313298443901 L628.3366484456715 295.29271358683843 L629.6523989397468 295.25095264380235 L630.9681494338222 295.1979204733097 L632.2838999278974 295.14316998410527 L633.5996504219727 295.09542535895287 L634.9154009160482 295.06215874439056 L636.2311514101234 295.04923262700424 L637.5469019041988 295.06062630956234 L638.8626523982741 295.098268175626 L640.1784028923494 295.16199362301313 L641.4941533864247 295.2496409684046 L642.8099038805001 295.35728521626845 L644.1256543745754 295.4795946297792 L645.4414048686507 295.61028055225006 L646.757155362726 295.74259986482775 L648.0729058568014 295.8698640076313 L649.3886563508767 295.9859095453968 L650.704406844952 296.0854923322136 L652.0201573390274 296.1645787599772 L653.3359078331026 296.2205210259941 L654.6516583271781 296.2521164220478 L655.9674088212533 296.2595613934399 L657.2831593153286 296.24431841169246 L658.598909809404 296.2089173074424 L659.9146603034793 296.15671311988643 L661.2304107975546 296.0916206815574 L662.5461612916299 296.01784313459984 L663.8619117857053 295.9396082776077 L665.1776622797806 295.86092367724854 L666.4934127738559 295.78535911978406 L667.8091632679312 295.7158632240607 L669.1249137620066 295.65461971459695 L670.4406642560818 295.6029477053291 L671.7564147501573 295.56124910349513 L673.0721652442326 295.5290046756035 L674.3879157383078 295.5048182673753 L675.7036662323832 295.4865061126577 L677.0194167264585 295.4712252726098 L678.3351672205338 295.45563242391955 L679.6509177146091 295.4360620913489 L680.9666682086845 295.40871272675054 L682.2824187027599 295.3698303862585 L683.5981691968351 295.31588335699377 L684.9139196909105 295.2437264769119 L686.2296701849858 295.15075983774597 L687.5454206790611 295.035091171612 L688.8611711731365 294.8957123731187 L690.1769216672118 294.73269659079864 L691.492672161287 294.5474125542263 L692.8084226553625 294.3427383875355 L694.1241731494378 294.1232410288477 L695.439923643513 293.89527388700833 L696.7556741375885 293.66693934748594 L698.0714246316637 293.4478681578702 L699.3871751257391 293.2487863551089 L700.7029256198143 293.08087088218844 L702.0186761138897 292.954932699858 L703.334426607965 292.8805037545379 L704.6501771020403 292.86493329578985 L705.9659275961158 292.9126123828534 " fill="none" stroke-width="1.6500000000000001" stroke="rgb(71,71,71)" stroke-opacity="1.0">
                </path>
              </g>
            </g>
          </g>
        </g>
        <defs>
          <clipPath id="cppeXVp">
            <rect x="25.416647280259767" y="0.0" width="739.5833527197402" height="297.0">
            </rect>
          </clipPath>
        </defs>
      </g>
      <g>
        <g transform="translate(25.416647280259767 297.0 ) ">
          <g transform="translate(33.61742512362456 0.0 ) ">
            <line stroke-width="1.0" stroke="rgb(71,71,71)" stroke-opacity="1.0" x2="0.0" y2="4.0">
            </line>
            <g transform="translate(0.0 7.0 ) ">
              <text class="axis-text-x" text-anchor="middle" dy="0.7em">
                <tspan>0</tspan>
              </text>
            </g>
          </g>
          <g transform="translate(100.85227537087367 0.0 ) ">
            <line stroke-width="1.0" stroke="rgb(71,71,71)" stroke-opacity="1.0" x2="0.0" y2="4.0">
            </line>
            <g transform="translate(0.0 7.0 ) ">
              <text class="axis-text-x" text-anchor="middle" dy="0.7em">
                <tspan>1</tspan>
              </text>
            </g>
          </g>
          <g transform="translate(168.0871256181228 0.0 ) ">
            <line stroke-width="1.0" stroke="rgb(71,71,71)" stroke-opacity="1.0" x2="0.0" y2="4.0">
            </line>
            <g transform="translate(0.0 7.0 ) ">
              <text class="axis-text-x" text-anchor="middle" dy="0.7em">
                <tspan>2</tspan>
              </text>
            </g>
          </g>
          <g transform="translate(235.32197586537188 0.0 ) ">
            <line stroke-width="1.0" stroke="rgb(71,71,71)" stroke-opacity="1.0" x2="0.0" y2="4.0">
            </line>
            <g transform="translate(0.0 7.0 ) ">
              <text class="axis-text-x" text-anchor="middle" dy="0.7em">
                <tspan>3</tspan>
              </text>
            </g>
          </g>
          <g transform="translate(302.556826112621 0.0 ) ">
            <line stroke-width="1.0" stroke="rgb(71,71,71)" stroke-opacity="1.0" x2="0.0" y2="4.0">
            </line>
            <g transform="translate(0.0 7.0 ) ">
              <text class="axis-text-x" text-anchor="middle" dy="0.7em">
                <tspan>4</tspan>
              </text>
            </g>
          </g>
          <g transform="translate(369.79167635987017 0.0 ) ">
            <line stroke-width="1.0" stroke="rgb(71,71,71)" stroke-opacity="1.0" x2="0.0" y2="4.0">
            </line>
            <g transform="translate(0.0 7.0 ) ">
              <text class="axis-text-x" text-anchor="middle" dy="0.7em">
                <tspan>5</tspan>
              </text>
            </g>
          </g>
          <g transform="translate(437.02652660711925 0.0 ) ">
            <line stroke-width="1.0" stroke="rgb(71,71,71)" stroke-opacity="1.0" x2="0.0" y2="4.0">
            </line>
            <g transform="translate(0.0 7.0 ) ">
              <text class="axis-text-x" text-anchor="middle" dy="0.7em">
                <tspan>6</tspan>
              </text>
            </g>
          </g>
          <g transform="translate(504.26137685436834 0.0 ) ">
            <line stroke-width="1.0" stroke="rgb(71,71,71)" stroke-opacity="1.0" x2="0.0" y2="4.0">
            </line>
            <g transform="translate(0.0 7.0 ) ">
              <text class="axis-text-x" text-anchor="middle" dy="0.7em">
                <tspan>7</tspan>
              </text>
            </g>
          </g>
          <g transform="translate(571.4962271016175 0.0 ) ">
            <line stroke-width="1.0" stroke="rgb(71,71,71)" stroke-opacity="1.0" x2="0.0" y2="4.0">
            </line>
            <g transform="translate(0.0 7.0 ) ">
              <text class="axis-text-x" text-anchor="middle" dy="0.7em">
                <tspan>8</tspan>
              </text>
            </g>
          </g>
          <g transform="translate(638.7310773488666 0.0 ) ">
            <line stroke-width="1.0" stroke="rgb(71,71,71)" stroke-opacity="1.0" x2="0.0" y2="4.0">
            </line>
            <g transform="translate(0.0 7.0 ) ">
              <text class="axis-text-x" text-anchor="middle" dy="0.7em">
                <tspan>9</tspan>
              </text>
            </g>
          </g>
          <g transform="translate(705.9659275961158 0.0 ) ">
            <line stroke-width="1.0" stroke="rgb(71,71,71)" stroke-opacity="1.0" x2="0.0" y2="4.0">
            </line>
            <g transform="translate(0.0 7.0 ) ">
              <text class="axis-text-x" text-anchor="middle" dy="0.7em">
                <tspan>10</tspan>
              </text>
            </g>
          </g>
          <line x1="0.0" y1="0.0" x2="739.5833527197402" y2="0.0" stroke-width="1.0" stroke="rgb(71,71,71)" stroke-opacity="1.0">
          </line>
        </g>
        <g transform="translate(25.416647280259767 0.0 ) ">
          <g transform="translate(0.0 297.0 ) ">
            <g transform="translate(-3.0 0.0 ) ">
              <text class="axis-text-y" text-anchor="end" dy="0.35em">
                <tspan>0.0</tspan>
              </text>
            </g>
          </g>
          <g transform="translate(0.0 232.08658945278904 ) ">
            <g transform="translate(-3.0 0.0 ) ">
              <text class="axis-text-y" text-anchor="end" dy="0.35em">
                <tspan>0.2</tspan>
              </text>
            </g>
          </g>
          <g transform="translate(0.0 167.1731789055781 ) ">
            <g transform="translate(-3.0 0.0 ) ">
              <text class="axis-text-y" text-anchor="end" dy="0.35em">
                <tspan>0.4</tspan>
              </text>
            </g>
          </g>
          <g transform="translate(0.0 102.25976835836715 ) ">
            <g transform="translate(-3.0 0.0 ) ">
              <text class="axis-text-y" text-anchor="end" dy="0.35em">
                <tspan>0.6</tspan>
              </text>
            </g>
          </g>
          <g transform="translate(0.0 37.346357811156224 ) ">
            <g transform="translate(-3.0 0.0 ) ">
              <text class="axis-text-y" text-anchor="end" dy="0.35em">
                <tspan>0.8</tspan>
              </text>
            </g>
          </g>
        </g>
      </g>
    </g>
    <g transform="translate(423.7083236401299 21.6 ) ">
      <text class="plot-title" y="0.0" text-anchor="middle">
        <tspan>Density Plot of Draw Odds</tspan>
      </text>
    </g>
    <g transform="translate(423.7083236401299 42.8 ) ">
      <text class="plot-subtitle" y="0.0" text-anchor="middle">
        <tspan>Draw odds cluster at the range of 3 to 5 with a peak at 3.6</tspan>
      </text>
    </g>
    <g transform="translate(15.200000000000001 201.0 ) rotate(-90.0 ) ">
      <text class="axis-title-y" y="0.0" text-anchor="middle">
        <tspan>Density</tspan>
      </text>
    </g>
    <g transform="translate(423.7083236401299 393.2 ) ">
      <text class="axis-title-x" y="0.0" text-anchor="middle">
        <tspan>Draw Odds</tspan>
      </text>
    </g>
    <path fill="rgb(0,0,0)" fill-opacity="0.0" stroke="rgb(71,71,71)" stroke-opacity="1.0" stroke-width="0.0" d="M0.0 0.0 L0.0 400.0 L800.0 400.0 L800.0 0.0 Z" pointer-events="none">
    </path>
  </g>
  <g id="dxRH5os">
  </g>
</svg>