<svg xmlns="http://www.w3.org/2000/svg" xmlns:xlink="http://www.w3.org/1999/xlink" display="block" class="plt-container" width="800.0" height="400.0">
  <style type="text/css">
  .plt-container {
   font-family: Lucida Grande, sans-serif;
   user-select: none;
   -webkit-user-select: none;
   -moz-user-select: none;
   -ms-user-select: none;
}
text {
   text-rendering: optimizeLegibility;
}
#pAvdhM4 .plot-title {
fill: #474747;
font-weight: bold;
   font-style: normal;font-family: Lucida Grande, sans-serif;
font-size: 22.0px;

}
#pAvdhM4 .plot-subtitle {
fill: #0000ff;
font-weight: normal;
   font-style: normal;font-family: Lucida Grande, sans-serif;
font-size: 16.0px;

}
#pAvdhM4 .plot-caption {
fill: #474747;
font-weight: normal;
   font-style: normal;font-family: Lucida Grande, sans-serif;
font-size: 13.0px;

}
#pAvdhM4 .hyperlink-element {
fill: #118ed8;
font-weight: normal;
   font-style: normal;
}
#pAvdhM4 .legend-title {
fill: #474747;
font-weight: normal;
   font-style: normal;font-family: Lucida Grande, sans-serif;
font-size: 15.0px;

}
#pAvdhM4 .legend-item {
fill: #474747;
font-weight: normal;
   font-style: normal;font-family: Lucida Grande, sans-serif;
font-size: 13.0px;

}
#pAvdhM4 .axis-title-x {
fill: #474747;
font-weight: normal;
   font-style: normal;font-family: Lucida Grande, sans-serif;
font-size: 14.0px;

}
#pAvdhM4 .axis-text-x {
fill: #474747;
font-weight: normal;
   font-style: normal;font-family: Lucida Grande, sans-serif;
font-size: 12.0px;

}
#dDwNziZ .axis-tooltip-text-x {
fill: #ffffff;
font-weight: normal;
   font-style: normal;font-family: Lucida Grande, sans-serif;
font-size: 13.0px;

}
#pAvdhM4 .axis-title-y {
fill: #474747;
font-weight: normal;
   font-style: normal;font-family: Lucida Grande, sans-serif;
font-size: 14.0px;

}
#pAvdhM4 .axis-text-y {
fill: #474747;
font-weight: normal;
   font-style: normal;font-family: Lucida Grande, sans-serif;
font-size: 12.0px;

}
#dDwNziZ .axis-tooltip-text-y {
fill: #ffffff;
font-weight: normal;
   font-style: normal;font-family: Lucida Grande, sans-serif;
font-size: 13.0px;

}
#pAvdhM4 .facet-strip-text-x {
fill: #474747;
font-weight: normal;
   font-style: normal;font-family: Lucida Grande, sans-serif;
font-size: 13.0px;

}
#pAvdhM4 .facet-strip-text-y {
fill: #474747;
font-weight: normal;
   font-style: normal;font-family: Lucida Grande, sans-serif;
font-size: 13.0px;

}
#dDwNziZ .tooltip-text {
fill: #474747;
font-weight: normal;
   font-style: normal;font-family: Lucida Grande, sans-serif;
font-size: 13.0px;

}
#dDwNziZ .tooltip-title {
fill: #474747;
font-weight: bold;
   font-style: normal;font-family: Lucida Grande, sans-serif;
font-size: 13.0px;

}
#dDwNziZ .tooltip-label {
fill: #474747;
font-weight: bold;
   font-style: normal;font-family: Lucida Grande, sans-serif;
font-size: 13.0px;

}

  </style>
  <g id="pAvdhM4">
    <path fill-rule="evenodd" fill="rgb(255,255,255)" fill-opacity="1.0" d="M0.0 0.0 L0.0 400.0 L800.0 400.0 L800.0 0.0 Z">
    </path>
    <g transform="translate(28.5 52.5 ) ">
      <g>
        <g transform="translate(32.783360008384264 0.0 ) ">
          <g>
            <line x1="33.28257454507344" y1="0.0" x2="33.28257454507344" y2="297.0" stroke="rgb(233,233,233)" stroke-opacity="1.0" stroke-width="1.0" fill="none">
            </line>
            <line x1="99.84772363522032" y1="0.0" x2="99.84772363522032" y2="297.0" stroke="rgb(233,233,233)" stroke-opacity="1.0" stroke-width="1.0" fill="none">
            </line>
            <line x1="166.41287272536718" y1="0.0" x2="166.41287272536718" y2="297.0" stroke="rgb(233,233,233)" stroke-opacity="1.0" stroke-width="1.0" fill="none">
            </line>
            <line x1="232.97802181551407" y1="0.0" x2="232.97802181551407" y2="297.0" stroke="rgb(233,233,233)" stroke-opacity="1.0" stroke-width="1.0" fill="none">
            </line>
            <line x1="299.54317090566093" y1="0.0" x2="299.54317090566093" y2="297.0" stroke="rgb(233,233,233)" stroke-opacity="1.0" stroke-width="1.0" fill="none">
            </line>
            <line x1="366.1083199958078" y1="0.0" x2="366.1083199958078" y2="297.0" stroke="rgb(233,233,233)" stroke-opacity="1.0" stroke-width="1.0" fill="none">
            </line>
            <line x1="432.6734690859547" y1="0.0" x2="432.6734690859547" y2="297.0" stroke="rgb(233,233,233)" stroke-opacity="1.0" stroke-width="1.0" fill="none">
            </line>
            <line x1="499.23861817610157" y1="0.0" x2="499.23861817610157" y2="297.0" stroke="rgb(233,233,233)" stroke-opacity="1.0" stroke-width="1.0" fill="none">
            </line>
            <line x1="565.8037672662484" y1="0.0" x2="565.8037672662484" y2="297.0" stroke="rgb(233,233,233)" stroke-opacity="1.0" stroke-width="1.0" fill="none">
            </line>
            <line x1="632.3689163563953" y1="0.0" x2="632.3689163563953" y2="297.0" stroke="rgb(233,233,233)" stroke-opacity="1.0" stroke-width="1.0" fill="none">
            </line>
            <line x1="698.9340654465421" y1="0.0" x2="698.9340654465421" y2="297.0" stroke="rgb(233,233,233)" stroke-opacity="1.0" stroke-width="1.0" fill="none">
            </line>
          </g>
        </g>
        <g transform="translate(32.783360008384264 0.0 ) ">
          <g>
            <line x1="0.0" y1="297.0" x2="732.2166399916157" y2="297.0" stroke="rgb(233,233,233)" stroke-opacity="1.0" stroke-width="1.0" fill="none">
            </line>
            <line x1="0.0" y1="238.58276218176115" x2="732.2166399916157" y2="238.58276218176115" stroke="rgb(233,233,233)" stroke-opacity="1.0" stroke-width="1.0" fill="none">
            </line>
            <line x1="0.0" y1="180.1655243635223" x2="732.2166399916157" y2="180.1655243635223" stroke="rgb(233,233,233)" stroke-opacity="1.0" stroke-width="1.0" fill="none">
            </line>
            <line x1="0.0" y1="121.74828654528343" x2="732.2166399916157" y2="121.74828654528343" stroke="rgb(233,233,233)" stroke-opacity="1.0" stroke-width="1.0" fill="none">
            </line>
            <line x1="0.0" y1="63.33104872704462" x2="732.2166399916157" y2="63.33104872704462" stroke="rgb(233,233,233)" stroke-opacity="1.0" stroke-width="1.0" fill="none">
            </line>
            <line x1="0.0" y1="4.913810908805772" x2="732.2166399916157" y2="4.913810908805772" stroke="rgb(233,233,233)" stroke-opacity="1.0" stroke-width="1.0" fill="none">
            </line>
          </g>
        </g>
      </g>
      <g clip-path="url(#c9DTZgx)" clip-bounds-jfx="[rect (32.783360008384264, 0.0), (732.2166399916157, 297.0)]">
        <g transform="translate(32.783360008384264 0.0 ) ">
          <g>
            <g>
              <g>
                <path d="M33.28257454507344 127.15833772465112 L33.28257454507344 127.15833772465112 L34.58521934135811 121.92484690781885 L35.88786413764279 116.7363278160494 L37.19050893392746 111.60324491084492 L38.493153730212136 106.53585055364513 L39.79579852649681 101.54412925298826 L41.098443322781485 96.63774400427877 L42.40108811906616 91.82598521019094 L43.703732915350834 87.11772264172058 L45.00637771163551 82.52136086615084 L46.30902250792018 78.044798529122 L47.61166730420486 73.69539183430257 L48.91431210048953 69.47992251625831 L50.21695689677421 65.4045705509161 L51.51960169305888 61.47489179405801 L52.822246489343556 57.695800682488795 L54.12489128562823 54.07155807562705 L55.427536081912905 50.60576425808409 L56.73018087819758 47.301357067105954 L58.032825674482254 44.160615053464085 L59.33547047076693 41.185165531050444 L60.6381152670516 38.375997319988926 L61.94076006333628 35.73347794098237 L63.24340485962095 33.25737497571214 L64.54604965590562 30.946881269538665 L65.8486944521903 28.800643619428513 L67.15133924847498 26.816794561931374 L68.45398404475965 24.992986853555692 L69.75662884104432 23.326430219211147 L71.059273637329 21.813929933618226 L72.36191843361368 20.451926795589316 L73.66456322989835 19.236538055783285 L74.96720802618302 18.16359886493018 L76.2698528224677 17.22870382092225 L77.57249761875238 16.4272482097154 L78.87514241503705 15.754468555857557 L80.17778721132171 15.205482123421234 L81.4804320076064 14.775325036545723 L82.78307680389108 14.45898872027442 L84.08572160017575 14.25145439598947 L85.38836639646041 14.147725401562923 L86.6910111927451 14.142857142857167 L87.99365598902978 14.231984520774063 L89.29630078531444 14.410346715381422 L90.59894558159911 14.673309245599967 L91.90159037788379 15.016383258876203 L93.20423517416847 15.435242039650234 L94.50687997045314 15.925734758102351 L95.80952476673781 16.483897510795543 L97.11216956302249 17.105961732684648 L98.41481435930717 17.788360084830117 L99.71745915559185 18.52772994396622 L101.02010395187651 19.320914638885654 L102.32274874816119 20.16496259406989 L103.62539354444587 21.05712455325215 L103.62539354444587 21.05712455325215 L104.92803834073055 21.994849064667278 L106.2306831370152 22.975776415672385 L107.53332793329989 23.997731207477557 L108.83597272958457 25.05871376072116 L110.13861752586925 26.15689054040638 L111.4412623221539 27.290583783782836 L112.74390711843859 28.458260507982743 L114.04655191472327 29.658521065509547 L115.34919671100795 30.890087405549195 L116.6518415072926 32.15179118762126 L117.95448630357728 33.44256188180174 L119.25713109986197 34.76141497677435 L120.55977589614665 36.10744040364756 L121.8624206924313 37.47979127004959 L123.16506548871598 38.87767298574448 L124.46771028500066 40.30033284804085 L125.77035508128535 41.74705014293022 L127.07299987757 43.21712680612927 L128.37564467385468 44.7098786774344 L129.67828947013936 46.22462737182599 L130.98093426642404 47.76069278189479 L132.2835790627087 49.31738621831332 L133.58622385899338 50.89400418834498 L134.88886865527806 52.48982280664174 L136.19151345156274 54.104092828022004 L137.4941582478474 55.73603528815491 L138.79680304413208 57.38483773541586 L140.09944784041676 59.049651035234575 L141.40209263670144 60.72958672706358 L142.7047374329861 62.42371491363386 L144.00738222927077 64.13106266201225 L145.31002702555546 65.85061289656454 L146.61267182184014 67.58130376443373 L147.9153166181248 69.32202845523031 L149.21796141440947 71.07163545751956 L150.52060621069415 72.82892923577131 L151.82325100697884 74.59267131239744 L153.1258958032635 76.36158174031789 L154.42854059954817 78.13434095212287 L155.73118539583285 79.90959197234423 L157.03383019211753 81.68594297947976 L158.3364749884022 83.46197020429082 L159.63911978468687 85.23622115054982 L160.94176458097155 87.00721812370102 L162.24440937725623 88.77346205206462 L163.5470541735409 90.5334365840774 L164.84969896982557 92.28561244378699 L166.15234376611025 94.02845202541198 L167.45498856239493 95.76041420625376 L168.75763335867958 97.4799593557106 L170.06027815496427 99.18555451662635 L171.36292295124892 100.87567873363383 L172.66556774753363 102.54882850187084 L173.96821254381828 104.20352330803735 L175.27085734010296 105.83831123478365 L176.57350213638765 107.45177459838229 L177.87614693267233 109.04253558899674 L179.17879172895698 110.609261882287 L180.48143652524166 112.15067219087717 L181.78408132152632 113.66554172405725 L183.08672611781103 115.15270752429174 L183.08672611781103 115.15270752429174 L184.38937091409568 116.61107364940133 L185.69201571038036 118.03961616979865 L186.99466050666504 119.4373879508019 L188.29730530294972 120.80352319084855 L189.59995009923438 122.13724168731625 L190.90259489551906 123.43785280263566 L192.2052396918037 124.70475910442443 L193.50788448808842 125.9374596544682 L194.81052928437308 127.13555292250655 L196.11317408065776 128.29873930195282 L197.41581887694244 129.4268232058879 L198.71846367322712 130.5197147229047 L200.02110846951177 131.57743081369247 L201.32375326579646 132.60009603064842 L202.6263980620811 133.5879427442605 L203.92904285836582 134.54131086164048 L205.23168765465047 135.46064702437008 L206.53433245093515 136.34650327479144 L207.83697724721983 137.19953518209255 L209.13962204350452 138.02049942202646 L210.44226683978917 138.81025080687118 L211.74491163607385 139.56973876534352 L213.0475564323585 140.3000032756115 L214.35020122864321 141.0021702583419 L215.65284602492787 141.6774464408553 L216.95549082121255 142.32711370789468 L218.25813561749723 142.95252295932525 L219.5607804137819 143.55508750006746 L220.86342521006657 144.13627599286394 L222.16607000635125 144.69760500983656 L223.4687148026359 145.2406312242846 L224.7713595989206 145.7669432896192 L226.07400439520526 146.2781534576704 L227.37664919148995 146.77588899370176 L228.67929398777463 147.26178345027674 L229.9819387840593 147.73746786641564 L231.28458358034396 148.20456196228534 L232.58722837662864 148.6646654027283 L233.8898731729133 149.11934920525664 L235.192517969198 149.57014736957666 L236.49516276548266 150.018548806156 L237.79780756176734 150.46598964078436 L239.10045235805202 150.91384597043984 L240.4030971543367 151.36342714295463 L241.70574195062136 151.8159696291046 L243.00838674690604 152.27263155067382 L244.3110315431907 152.73448792194432 L245.6136763394754 153.20252665487646 L246.91632113576006 153.67764537014352 L248.21896593204474 154.16064904721233 L249.52161072832942 154.65224853693266 L250.8242555246141 155.15305994986048 L252.12690032089876 155.6636049227528 L253.42954511718344 156.18431175471576 L254.7321899134681 156.71551739340902 L256.03483470975283 157.2574702406997 L257.3374795060375 157.81033373650644 L258.64012430232214 158.3741906692935 L259.94276909860685 158.9490481521308 L261.2454138948915 159.53484319444732 L262.54805869117615 160.13144879179998 L263.85070348746086 160.73868044929756 L265.1533482837455 161.35630304883674 L266.4559930800302 161.9840379661655 L267.7586378763149 162.6215703410369 L269.06128267259953 163.26855640238966 L270.36392746888424 163.92463075065237 L271.6665722651689 164.589413500855 L272.96921706145355 165.2625171932749 L274.27186185773826 165.94355338270253 L275.5745066540229 166.63213882311274 L276.8771514503076 167.3279011713645 L278.1797962465923 168.03048414146056 L279.4824410428769 168.73955204973487 L280.78508583916164 169.45479370092642 L282.0877306354463 170.17592557529383 L283.39037543173094 170.90269428756278 L284.69302022801565 171.63487829938816 L285.9956650243003 172.37228887797397 L287.298309820585 173.11477030441768 L288.60095461686967 173.8621993459526 L289.9035994131543 174.61448401651907 L291.20624420943903 175.3715616597751 L292.5088890057237 176.1333963976497 L293.81153380200834 176.89997599576597 L295.114178598293 177.67130820433815 L296.4168233945777 178.44741663950452 L297.71946819086236 179.22833627530747 L299.02211298714707 180.0141086207425 L300.3247577834317 180.80477665937207 L301.62740257971643 181.60037963091816 L302.930047376001 182.4009477351159 L304.23269217228574 183.2064968378056 L305.53533696857045 184.0170232579132 L306.8379817648551 184.83249871166788 L308.14062656113975 185.6528654870757 L309.4432713574244 186.47803191756827 L310.7459161537091 187.30786821878235 L312.0485609499938 188.14220274682617 L312.0485609499938 188.14220274682617 L313.3512057462784 188.9808187301377 L314.65385054256313 189.8234515203448 L315.95649533884784 190.66978640040077 L317.2591401351325 191.5194569808575 L318.56178493141715 192.3720442075517 L319.86442972770186 193.22707599627086 L321.1670745239865 194.0840275022991 L322.4697193202712 194.94232202514533 L323.7723641165558 195.80133254139432 L325.07500891284053 196.66038385147266 L326.37765370912524 197.51875531938094 L327.6802985054099 198.37568417808723 L328.98294330169455 199.23036936738376 L330.2855880979792 200.0819758656853 L331.5882328942639 200.92963947244982 L332.8908776905486 201.77247199372997 L334.1935224868332 202.60956677979686 L335.4961672831179 203.44000456087684 L336.79881207940264 204.26285952474535 L338.1014568756873 205.07720557830146 L339.40410167197194 205.88212273423377 L340.70674646825665 206.67670356348117 L342.0093912645413 207.46005965439267 L343.312036060826 208.23132802021098 L344.6146808571106 208.98967739776657 L345.9173256533953 209.7343143819957 L347.21997044968003 210.4644893430572 L348.5226152459647 211.1795020753766 L349.82526004224934 211.87870713083896 L351.127904838534 212.56151879155948 L352.4305496348187 213.227415641093 L353.7331944311034 213.87594469664356 L355.035839227388 214.50672506865402 L356.3384840236727 215.11945111817425 L357.64112881995743 215.713895086491 L358.9437736162421 216.28990917570917 L360.24641841252674 216.84742706322118 L361.54906320881145 217.3864648372998 L362.8517080050961 217.90712134537526 L364.1543528013808 218.40957795089872 L365.4569975976654 218.8940976990261 L366.7596423939501 219.36102389569643 L368.0622871902348 219.8107781089855 L369.3649319865195 220.24385760589905 L370.66757678280413 220.66083224201236 L371.9702215790888 221.062340825545 L373.2728663753735 221.44908698157084 L374.5755111716582 221.8218345460774 L375.8781559679428 222.18140252348695 L377.1808007642275 222.5286596449874 L378.4834455605122 222.86451856859765 L379.7860903567969 223.18992976521687 L381.08873515308153 223.50587513799866 L382.39137994936624 223.8133614251566 L383.6940247456509 224.11341343873357 L384.9966695419356 224.40706719388874 L386.2993143382202 224.69536298483746 L387.6019591345049 224.9793384646723 L388.9046039307896 225.2600217868566 L390.2072487270743 225.53842486618072 L391.5098935233589 225.8155368163819 L392.8125383196436 226.09231762041617 L394.1151831159283 226.36969208753607 L395.417827912213 226.6485441488573 L396.7204727084976 226.92971154001108 L398.0231175047823 227.21398091577663 L399.325762301067 227.5020834373176 L400.62840709735167 227.79469086785008 L401.9310518936363 228.09241220727492 L403.23369668992103 228.3957908906146 L404.5363414862057 228.70530256904578 L405.8389862824904 229.02135348601269 L407.141631078775 229.34427945441564 L408.4442758750597 229.67434543430744 L409.7469206713444 230.01174570396284 L411.04956546762907 230.35660461074434 L412.3522102639137 230.70897788193503 L413.6548550601984 231.0688544697603 L414.9574998564831 231.43615889926127 L416.2601446527678 231.8107540825792 L417.5627894490524 232.19244455866382 L418.8654342453371 232.58098011346408 L420.1680790416218 232.9760597323809 L421.47072383790646 233.37733583416951 L422.7733686341911 233.78441873363502 L424.0760134304758 234.19688127936058 L425.3786582267605 234.61426361235894 L426.6813030230452 235.03607799194245 L427.9839478193298 235.46181363622526 L429.2865926156145 235.8909415264898 L430.5892374118992 236.32291912711383 L431.89188220818386 236.757194975818 L433.1945270044685 237.19321310258627 L434.49717180075316 237.6304172396737 L435.7998165970379 238.06825478956657 L437.1024613933226 238.50618052252634 L438.4051061896072 238.94365998033146 L439.7077509858919 239.38017256798352 L441.0103957821766 239.81521432032412 L442.31304057846125 240.24830033570845 L443.6156853747459 240.67896687394278 L444.9183301710306 241.10677312060534 L446.22097496731527 241.53130262452453 L447.5236197636 241.9521644195238 L448.8262645598846 242.36899384552513 L450.1289093561693 242.78145308764041 L451.431554152454 243.18923145497035 L452.73419894873865 243.59204542340905 L454.0368437450233 243.98963846881162 L455.33948854130796 244.38178071838618 L456.64213333759267 244.76826844914046 L457.9447781338774 245.1489234626108 L459.247422930162 245.52359236497435 L460.5500677264467 245.8921457809816 L461.8527125227314 246.25447752899055 L463.15535731901605 246.61050378276332 L464.4580021153007 246.96016224363663 L465.7606469115854 247.3034113442549 L467.06329170787006 247.64022950230526 L468.3659365041548 247.97061443967075 L469.66858130043937 248.29458257918952 L470.9712260967241 248.6121685278292 L472.2738708930088 248.92342465162122 L473.57651568929344 249.22842074421996 L474.8791604855781 249.52724378750787 L476.18180528186275 249.81999779933213 L477.48445007814746 250.1068037602845 L478.78709487443217 250.38779960847708 L480.08973967071677 250.66314028857823 L481.3923844670015 250.93299783898806 L482.6950292632862 251.19756149900903 L483.99767405957084 251.45703781621015 L485.3003188558555 251.7116507329456 L486.6029636521402 251.96164163016147 L487.90560844842486 252.20726930623695 L489.20825324470957 252.44880986865377 L490.51089804099416 252.68655651675854 L491.8135428372789 252.9208191947842 L493.1161876335636 253.1519240955859 L494.41883242984824 253.38021299722936 L495.7214772261329 253.60604241658808 L497.02412202241754 253.82978256645143 L498.32676681870225 254.05181610527052 L499.62941161498696 254.27253667153184 L500.93205641127156 254.49234719782092 L502.23470120755627 254.7116580028644 L503.537346003841 254.9308846631843 L504.83999080012563 255.1504456694203 L506.1426355964103 255.37075987582733 L507.445280392695 255.59224375489976 L508.74792518897965 255.81530847247242 L510.05056998526436 256.0403568019564 L511.35321478154896 256.26777989955906 L512.6558595778337 256.4979539653642 L513.9585043741184 256.73123681799655 L515.2611491704031 256.96796441320737 L516.5637939666877 257.20844733909587 L517.8664387629724 257.45296732276745 L519.169083559257 257.70177378502024 L520.4717283555418 257.9550804811063 L521.7743731518264 258.2130622667181 L523.0770179481111 258.47585202907385 L524.3796627443958 258.7435378233034 L525.6823075406804 259.0161602542442 L526.9849523369651 259.29371014322504 L528.2875971332498 259.57612651843533 L529.5902419295345 259.86329496602644 L530.8928867258192 260.15504637716396 L532.1955315221038 260.45115612383904 L533.4981763183885 260.75134369334785 L534.8008211146732 261.05527280796343 L536.1034659109579 261.36255205246493 L537.4061107072425 261.6727360278627 L538.7087555035272 261.98532704489475 L540.0114002998118 262.2997773656871 L541.3140450960966 262.61549199641297 L542.6166898923811 262.93183202789515 L543.9193346886659 263.2481185149187 L545.2219794849506 263.5636368786261 L546.5246242812352 263.87764180981753 L547.8272690775199 264.1893626443483 L549.1299138738046 264.4980091751903 L550.4325586700892 264.80277785919225 L551.735203466374 265.10285837022053 L553.0378482626586 265.39744044429676 L554.3404930589433 265.68572095665434 L555.6431378552279 265.9669111654276 L556.9457826515126 266.2402440520469 L558.2484274477973 266.5049816844504 L559.551072244082 266.76042252601525 L560.8537170403666 267.00590861075085 L562.1563618366513 267.2408325038528 L563.4590066329359 267.46464396625737 L564.7616514292207 267.6768562424084 L566.0642962255054 267.8770518921007 L567.36694102179 268.06488809000547 L568.6695858180747 268.2401013203371 L569.9722306143594 268.4025113990629 L571.274875410644 268.55202476207114 L572.5775202069286 268.6886369647467 L573.8801650032134 268.8124343463966 L575.182809799498 268.9235948218388 L576.4854545957827 269.0223877721164 L577.7880993920675 269.1091730166183 L579.0907441883521 269.18439885973476 L580.3933889846368 269.2485992164324 L581.6960337809214 269.30238983261785 L582.9986785772061 269.3464636277396 L584.3013233734907 269.3815851985652 L585.6039681697754 269.40858453430735 L586.9066129660602 269.42835000408087 L588.2092577623448 269.44182068788643 L589.5119025586295 269.44997813177173 L590.8145473549142 269.45383761636054 L592.1171921511988 269.4544390354161 L593.4198369474834 269.452837487398 L594.7224817437682 269.45009368794774 L596.0251265400528 269.44726431481683 L597.3277713363375 269.4453923988493 L598.6304161326223 269.4454978751896 L599.9330609289069 269.44856840788447 L601.2357057251916 269.4555505984705 L602.5383505214762 269.4673416850054 L603.8409953177609 269.4847818323566 L605.1436401140455 269.5086471074684 L606.4462849103303 269.539643224882 L607.748929706615 269.57840013808845 L609.0515745028996 269.6254675414922 L610.3542192991843 269.6813113359974 L611.656864095469 269.74631109867136 L612.9595088917536 269.8207585837655 L614.2621536880382 269.9048572687824 L615.564798484323 269.99872294545526 L616.8674432806076 270.1023853416641 L618.1700880768923 270.2157907466509 L619.472732873177 270.33880559861336 L620.7753776694617 270.47122098104796 L622.0780224657464 270.6127579622673 L623.380667262031 270.76307370150187 L624.6833120583157 270.9217682350765 L625.9859568546003 271.0883918474688 L627.288601650885 271.26245292472646 L628.5912464471697 271.4434261818578 L629.8938912434544 271.63076115148004 L631.196536039739 271.82389081827966 L632.4991808360238 272.0222402827316 L633.8018256323084 272.2252353380545 L635.104470428593 272.4323108465217 L636.4071152248778 272.6429188049665 L637.7097600211624 272.8565359945495 L639.0124048174471 273.0726711165076 L640.3150496137318 273.290871323573 L641.6176944100165 273.5107280659131 L642.9203392063012 273.73188218065116 L644.2229840025858 273.95402816513496 L645.5256287988705 274.1769175859523 L646.8282735951551 274.40036158807567 L648.1309183914399 274.62423248127027 L649.4335631877245 274.8484643938324 L650.7362079840092 275.0730529966538 L652.0388527802938 275.2980543133461 L653.3414975765786 275.52358264452795 L654.6441423728631 275.7498076462034 L655.9467871691478 275.97695061328136 L657.2494319654326 276.2052800295478 L658.5520767617172 276.4351064546771 L659.8547215580019 276.6667768270231 L661.1573663542866 276.90066826787614 L662.4600111505713 277.13718147851154 L663.762655946856 277.3767338256374 L665.0653007431406 277.619752213722 L666.3679455394252 277.866665844128 L667.6705903357099 278.1178989610043 L668.9732351319946 278.37386368249724 L670.2758799282793 278.6349530131009 L671.578524724564 278.90153412891357 L672.8811695208486 279.17394202230105 L674.1838143171334 279.4524735860742 L675.4864591134179 279.7373822098883 L676.7891039097026 280.0288729532864 L678.0917487059874 280.3270983507803 L679.394393502272 280.63215489473754 L680.6970382985567 280.94408023177164 L681.9996830948414 281.2628510979771 L683.3023278911261 281.588382007869 L684.6049726874107 281.9205247014343 L685.9076174836955 282.25906834343726 L687.21026227998 282.6037404591894 L688.5129070762647 282.95420858153716 L689.8155518725495 283.31008257496296 L691.1181966688341 283.6709175945619 L692.4208414651188 284.03621763033925 L693.7234862614034 284.40543958086755 L695.0261310576882 284.7779977949149 L696.3287758539727 285.1532690152539 L697.6314206502574 285.5305976555302 L698.9340654465421 285.9093013388128 L698.9340654465421 297.0 L697.6314206502574 297.0 L696.3287758539727 297.0 L695.0261310576882 297.0 L693.7234862614034 297.0 L692.4208414651188 297.0 L691.1181966688341 297.0 L689.8155518725495 297.0 L688.5129070762647 297.0 L687.21026227998 297.0 L685.9076174836955 297.0 L684.6049726874107 297.0 L683.3023278911261 297.0 L681.9996830948414 297.0 L680.6970382985567 297.0 L679.394393502272 297.0 L678.0917487059874 297.0 L676.7891039097026 297.0 L675.4864591134179 297.0 L674.1838143171334 297.0 L672.8811695208486 297.0 L671.578524724564 297.0 L670.2758799282793 297.0 L668.9732351319946 297.0 L667.6705903357099 297.0 L666.3679455394252 297.0 L665.0653007431406 297.0 L663.762655946856 297.0 L662.4600111505713 297.0 L661.1573663542866 297.0 L659.8547215580019 297.0 L658.5520767617172 297.0 L657.2494319654326 297.0 L655.9467871691478 297.0 L654.6441423728631 297.0 L653.3414975765786 297.0 L652.0388527802938 297.0 L650.7362079840092 297.0 L649.4335631877245 297.0 L648.1309183914399 297.0 L646.8282735951551 297.0 L645.5256287988705 297.0 L644.2229840025858 297.0 L642.9203392063012 297.0 L641.6176944100165 297.0 L640.3150496137318 297.0 L639.0124048174471 297.0 L637.7097600211624 297.0 L636.4071152248778 297.0 L635.104470428593 297.0 L633.8018256323084 297.0 L632.4991808360238 297.0 L631.196536039739 297.0 L629.8938912434544 297.0 L628.5912464471697 297.0 L627.288601650885 297.0 L625.9859568546003 297.0 L624.6833120583157 297.0 L623.380667262031 297.0 L622.0780224657464 297.0 L620.7753776694617 297.0 L619.472732873177 297.0 L618.1700880768923 297.0 L616.8674432806076 297.0 L615.564798484323 297.0 L614.2621536880382 297.0 L612.9595088917536 297.0 L611.656864095469 297.0 L610.3542192991843 297.0 L609.0515745028996 297.0 L607.748929706615 297.0 L606.4462849103303 297.0 L605.1436401140455 297.0 L603.8409953177609 297.0 L602.5383505214762 297.0 L601.2357057251916 297.0 L599.9330609289069 297.0 L598.6304161326223 297.0 L597.3277713363375 297.0 L596.0251265400528 297.0 L594.7224817437682 297.0 L593.4198369474834 297.0 L592.1171921511988 297.0 L590.8145473549142 297.0 L589.5119025586295 297.0 L588.2092577623448 297.0 L586.9066129660602 297.0 L585.6039681697754 297.0 L584.3013233734907 297.0 L582.9986785772061 297.0 L581.6960337809214 297.0 L580.3933889846368 297.0 L579.0907441883521 297.0 L577.7880993920675 297.0 L576.4854545957827 297.0 L575.182809799498 297.0 L573.8801650032134 297.0 L572.5775202069286 297.0 L571.274875410644 297.0 L569.9722306143594 297.0 L568.6695858180747 297.0 L567.36694102179 297.0 L566.0642962255054 297.0 L564.7616514292207 297.0 L563.4590066329359 297.0 L562.1563618366513 297.0 L560.8537170403666 297.0 L559.551072244082 297.0 L558.2484274477973 297.0 L556.9457826515126 297.0 L555.6431378552279 297.0 L554.3404930589433 297.0 L553.0378482626586 297.0 L551.735203466374 297.0 L550.4325586700892 297.0 L549.1299138738046 297.0 L547.8272690775199 297.0 L546.5246242812352 297.0 L545.2219794849506 297.0 L543.9193346886659 297.0 L542.6166898923811 297.0 L541.3140450960966 297.0 L540.0114002998118 297.0 L538.7087555035272 297.0 L537.4061107072425 297.0 L536.1034659109579 297.0 L534.8008211146732 297.0 L533.4981763183885 297.0 L532.1955315221038 297.0 L530.8928867258192 297.0 L529.5902419295345 297.0 L528.2875971332498 297.0 L526.9849523369651 297.0 L525.6823075406804 297.0 L524.3796627443958 297.0 L523.0770179481111 297.0 L521.7743731518264 297.0 L520.4717283555418 297.0 L519.169083559257 297.0 L517.8664387629724 297.0 L516.5637939666877 297.0 L515.2611491704031 297.0 L513.9585043741184 297.0 L512.6558595778337 297.0 L511.35321478154896 297.0 L510.05056998526436 297.0 L508.74792518897965 297.0 L507.445280392695 297.0 L506.1426355964103 297.0 L504.83999080012563 297.0 L503.537346003841 297.0 L502.23470120755627 297.0 L500.93205641127156 297.0 L499.62941161498696 297.0 L498.32676681870225 297.0 L497.02412202241754 297.0 L495.7214772261329 297.0 L494.41883242984824 297.0 L493.1161876335636 297.0 L491.8135428372789 297.0 L490.51089804099416 297.0 L489.20825324470957 297.0 L487.90560844842486 297.0 L486.6029636521402 297.0 L485.3003188558555 297.0 L483.99767405957084 297.0 L482.6950292632862 297.0 L481.3923844670015 297.0 L480.08973967071677 297.0 L478.78709487443217 297.0 L477.48445007814746 297.0 L476.18180528186275 297.0 L474.8791604855781 297.0 L473.57651568929344 297.0 L472.2738708930088 297.0 L470.9712260967241 297.0 L469.66858130043937 297.0 L468.3659365041548 297.0 L467.06329170787006 297.0 L465.7606469115854 297.0 L464.4580021153007 297.0 L463.15535731901605 297.0 L461.8527125227314 297.0 L460.5500677264467 297.0 L459.247422930162 297.0 L457.9447781338774 297.0 L456.64213333759267 297.0 L455.33948854130796 297.0 L454.0368437450233 297.0 L452.73419894873865 297.0 L451.431554152454 297.0 L450.1289093561693 297.0 L448.8262645598846 297.0 L447.5236197636 297.0 L446.22097496731527 297.0 L444.9183301710306 297.0 L443.6156853747459 297.0 L442.31304057846125 297.0 L441.0103957821766 297.0 L439.7077509858919 297.0 L438.4051061896072 297.0 L437.1024613933226 297.0 L435.7998165970379 297.0 L434.49717180075316 297.0 L433.1945270044685 297.0 L431.89188220818386 297.0 L430.5892374118992 297.0 L429.2865926156145 297.0 L427.9839478193298 297.0 L426.6813030230452 297.0 L425.3786582267605 297.0 L424.0760134304758 297.0 L422.7733686341911 297.0 L421.47072383790646 297.0 L420.1680790416218 297.0 L418.8654342453371 297.0 L417.5627894490524 297.0 L416.2601446527678 297.0 L414.9574998564831 297.0 L413.6548550601984 297.0 L412.3522102639137 297.0 L411.04956546762907 297.0 L409.7469206713444 297.0 L408.4442758750597 297.0 L407.141631078775 297.0 L405.8389862824904 297.0 L404.5363414862057 297.0 L403.23369668992103 297.0 L401.9310518936363 297.0 L400.62840709735167 297.0 L399.325762301067 297.0 L398.0231175047823 297.0 L396.7204727084976 297.0 L395.417827912213 297.0 L394.1151831159283 297.0 L392.8125383196436 297.0 L391.5098935233589 297.0 L390.2072487270743 297.0 L388.9046039307896 297.0 L387.6019591345049 297.0 L386.2993143382202 297.0 L384.9966695419356 297.0 L383.6940247456509 297.0 L382.39137994936624 297.0 L381.08873515308153 297.0 L379.7860903567969 297.0 L378.4834455605122 297.0 L377.1808007642275 297.0 L375.8781559679428 297.0 L374.5755111716582 297.0 L373.2728663753735 297.0 L371.9702215790888 297.0 L370.66757678280413 297.0 L369.3649319865195 297.0 L368.0622871902348 297.0 L366.7596423939501 297.0 L365.4569975976654 297.0 L364.1543528013808 297.0 L362.8517080050961 297.0 L361.54906320881145 297.0 L360.24641841252674 297.0 L358.9437736162421 297.0 L357.64112881995743 297.0 L356.3384840236727 297.0 L355.035839227388 297.0 L353.7331944311034 297.0 L352.4305496348187 297.0 L351.127904838534 297.0 L349.82526004224934 297.0 L348.5226152459647 297.0 L347.21997044968003 297.0 L345.9173256533953 297.0 L344.6146808571106 297.0 L343.312036060826 297.0 L342.0093912645413 297.0 L340.70674646825665 297.0 L339.40410167197194 297.0 L338.1014568756873 297.0 L336.79881207940264 297.0 L335.4961672831179 297.0 L334.1935224868332 297.0 L332.8908776905486 297.0 L331.5882328942639 297.0 L330.2855880979792 297.0 L328.98294330169455 297.0 L327.6802985054099 297.0 L326.37765370912524 297.0 L325.07500891284053 297.0 L323.7723641165558 297.0 L322.4697193202712 297.0 L321.1670745239865 297.0 L319.86442972770186 297.0 L318.56178493141715 297.0 L317.2591401351325 297.0 L315.95649533884784 297.0 L314.65385054256313 297.0 L313.3512057462784 297.0 L312.0485609499938 297.0 L312.0485609499938 297.0 L310.7459161537091 297.0 L309.4432713574244 297.0 L308.14062656113975 297.0 L306.8379817648551 297.0 L305.53533696857045 297.0 L304.23269217228574 297.0 L302.930047376001 297.0 L301.62740257971643 297.0 L300.3247577834317 297.0 L299.02211298714707 297.0 L297.71946819086236 297.0 L296.4168233945777 297.0 L295.114178598293 297.0 L293.81153380200834 297.0 L292.5088890057237 297.0 L291.20624420943903 297.0 L289.9035994131543 297.0 L288.60095461686967 297.0 L287.298309820585 297.0 L285.9956650243003 297.0 L284.69302022801565 297.0 L283.39037543173094 297.0 L282.0877306354463 297.0 L280.78508583916164 297.0 L279.4824410428769 297.0 L278.1797962465923 297.0 L276.8771514503076 297.0 L275.5745066540229 297.0 L274.27186185773826 297.0 L272.96921706145355 297.0 L271.6665722651689 297.0 L270.36392746888424 297.0 L269.06128267259953 297.0 L267.7586378763149 297.0 L266.4559930800302 297.0 L265.1533482837455 297.0 L263.85070348746086 297.0 L262.54805869117615 297.0 L261.2454138948915 297.0 L259.94276909860685 297.0 L258.64012430232214 297.0 L257.3374795060375 297.0 L256.03483470975283 297.0 L254.7321899134681 297.0 L253.42954511718344 297.0 L252.12690032089876 297.0 L250.8242555246141 297.0 L249.52161072832942 297.0 L248.21896593204474 297.0 L246.91632113576006 297.0 L245.6136763394754 297.0 L244.3110315431907 297.0 L243.00838674690604 297.0 L241.70574195062136 297.0 L240.4030971543367 297.0 L239.10045235805202 297.0 L237.79780756176734 297.0 L236.49516276548266 297.0 L235.192517969198 297.0 L233.8898731729133 297.0 L232.58722837662864 297.0 L231.28458358034396 297.0 L229.9819387840593 297.0 L228.67929398777463 297.0 L227.37664919148995 297.0 L226.07400439520526 297.0 L224.7713595989206 297.0 L223.4687148026359 297.0 L222.16607000635125 297.0 L220.86342521006657 297.0 L219.5607804137819 297.0 L218.25813561749723 297.0 L216.95549082121255 297.0 L215.65284602492787 297.0 L214.35020122864321 297.0 L213.0475564323585 297.0 L211.74491163607385 297.0 L210.44226683978917 297.0 L209.13962204350452 297.0 L207.83697724721983 297.0 L206.53433245093515 297.0 L205.23168765465047 297.0 L203.92904285836582 297.0 L202.6263980620811 297.0 L201.32375326579646 297.0 L200.02110846951177 297.0 L198.71846367322712 297.0 L197.41581887694244 297.0 L196.11317408065776 297.0 L194.81052928437308 297.0 L193.50788448808842 297.0 L192.2052396918037 297.0 L190.90259489551906 297.0 L189.59995009923438 297.0 L188.29730530294972 297.0 L186.99466050666504 297.0 L185.69201571038036 297.0 L184.38937091409568 297.0 L183.08672611781103 297.0 L183.08672611781103 297.0 L181.78408132152632 297.0 L180.48143652524166 297.0 L179.17879172895698 297.0 L177.87614693267233 297.0 L176.57350213638765 297.0 L175.27085734010296 297.0 L173.96821254381828 297.0 L172.66556774753363 297.0 L171.36292295124892 297.0 L170.06027815496427 297.0 L168.75763335867958 297.0 L167.45498856239493 297.0 L166.15234376611025 297.0 L164.84969896982557 297.0 L163.5470541735409 297.0 L162.24440937725623 297.0 L160.94176458097155 297.0 L159.63911978468687 297.0 L158.3364749884022 297.0 L157.03383019211753 297.0 L155.73118539583285 297.0 L154.42854059954817 297.0 L153.1258958032635 297.0 L151.82325100697884 297.0 L150.52060621069415 297.0 L149.21796141440947 297.0 L147.9153166181248 297.0 L146.61267182184014 297.0 L145.31002702555546 297.0 L144.00738222927077 297.0 L142.7047374329861 297.0 L141.40209263670144 297.0 L140.09944784041676 297.0 L138.79680304413208 297.0 L137.4941582478474 297.0 L136.19151345156274 297.0 L134.88886865527806 297.0 L133.58622385899338 297.0 L132.2835790627087 297.0 L130.98093426642404 297.0 L129.67828947013936 297.0 L128.37564467385468 297.0 L127.07299987757 297.0 L125.77035508128535 297.0 L124.46771028500066 297.0 L123.16506548871598 297.0 L121.8624206924313 297.0 L120.55977589614665 297.0 L119.25713109986197 297.0 L117.95448630357728 297.0 L116.6518415072926 297.0 L115.34919671100795 297.0 L114.04655191472327 297.0 L112.74390711843859 297.0 L111.4412623221539 297.0 L110.13861752586925 297.0 L108.83597272958457 297.0 L107.53332793329989 297.0 L106.2306831370152 297.0 L104.92803834073055 297.0 L103.62539354444587 297.0 L103.62539354444587 297.0 L102.32274874816119 297.0 L101.02010395187651 297.0 L99.71745915559185 297.0 L98.41481435930717 297.0 L97.11216956302249 297.0 L95.80952476673781 297.0 L94.50687997045314 297.0 L93.20423517416847 297.0 L91.90159037788379 297.0 L90.59894558159911 297.0 L89.29630078531444 297.0 L87.99365598902978 297.0 L86.6910111927451 297.0 L85.38836639646041 297.0 L84.08572160017575 297.0 L82.78307680389108 297.0 L81.4804320076064 297.0 L80.17778721132171 297.0 L78.87514241503705 297.0 L77.57249761875238 297.0 L76.2698528224677 297.0 L74.96720802618302 297.0 L73.66456322989835 297.0 L72.36191843361368 297.0 L71.059273637329 297.0 L69.75662884104432 297.0 L68.45398404475965 297.0 L67.15133924847498 297.0 L65.8486944521903 297.0 L64.54604965590562 297.0 L63.24340485962095 297.0 L61.94076006333628 297.0 L60.6381152670516 297.0 L59.33547047076693 297.0 L58.032825674482254 297.0 L56.73018087819758 297.0 L55.427536081912905 297.0 L54.12489128562823 297.0 L52.822246489343556 297.0 L51.51960169305888 297.0 L50.21695689677421 297.0 L48.91431210048953 297.0 L47.61166730420486 297.0 L46.30902250792018 297.0 L45.00637771163551 297.0 L43.703732915350834 297.0 L42.40108811906616 297.0 L41.098443322781485 297.0 L39.79579852649681 297.0 L38.493153730212136 297.0 L37.19050893392746 297.0 L35.88786413764279 297.0 L34.58521934135811 297.0 L33.28257454507344 297.0 Z" fill="rgb(0,0,255)" stroke-width="1.0" fill-opacity="0.5019607843137255">
                </path>
              </g>
              <g>
                <path d="M33.28257454507344 127.15833772465112 L33.28257454507344 127.15833772465112 L34.58521934135811 121.92484690781885 L35.88786413764279 116.7363278160494 L37.19050893392746 111.60324491084492 L38.493153730212136 106.53585055364513 L39.79579852649681 101.54412925298826 L41.098443322781485 96.63774400427877 L42.40108811906616 91.82598521019094 L43.703732915350834 87.11772264172058 L45.00637771163551 82.52136086615084 L46.30902250792018 78.044798529122 L47.61166730420486 73.69539183430257 L48.91431210048953 69.47992251625831 L50.21695689677421 65.4045705509161 L51.51960169305888 61.47489179405801 L52.822246489343556 57.695800682488795 L54.12489128562823 54.07155807562705 L55.427536081912905 50.60576425808409 L56.73018087819758 47.301357067105954 L58.032825674482254 44.160615053464085 L59.33547047076693 41.185165531050444 L60.6381152670516 38.375997319988926 L61.94076006333628 35.73347794098237 L63.24340485962095 33.25737497571214 L64.54604965590562 30.946881269538665 L65.8486944521903 28.800643619428513 L67.15133924847498 26.816794561931374 L68.45398404475965 24.992986853555692 L69.75662884104432 23.326430219211147 L71.059273637329 21.813929933618226 L72.36191843361368 20.451926795589316 L73.66456322989835 19.236538055783285 L74.96720802618302 18.16359886493018 L76.2698528224677 17.22870382092225 L77.57249761875238 16.4272482097154 L78.87514241503705 15.754468555857557 L80.17778721132171 15.205482123421234 L81.4804320076064 14.775325036545723 L82.78307680389108 14.45898872027442 L84.08572160017575 14.25145439598947 L85.38836639646041 14.147725401562923 L86.6910111927451 14.142857142857167 L87.99365598902978 14.231984520774063 L89.29630078531444 14.410346715381422 L90.59894558159911 14.673309245599967 L91.90159037788379 15.016383258876203 L93.20423517416847 15.435242039650234 L94.50687997045314 15.925734758102351 L95.80952476673781 16.483897510795543 L97.11216956302249 17.105961732684648 L98.41481435930717 17.788360084830117 L99.71745915559185 18.52772994396622 L101.02010395187651 19.320914638885654 L102.32274874816119 20.16496259406989 L103.62539354444587 21.05712455325215 L103.62539354444587 21.05712455325215 L104.92803834073055 21.994849064667278 L106.2306831370152 22.975776415672385 L107.53332793329989 23.997731207477557 L108.83597272958457 25.05871376072116 L110.13861752586925 26.15689054040638 L111.4412623221539 27.290583783782836 L112.74390711843859 28.458260507982743 L114.04655191472327 29.658521065509547 L115.34919671100795 30.890087405549195 L116.6518415072926 32.15179118762126 L117.95448630357728 33.44256188180174 L119.25713109986197 34.76141497677435 L120.55977589614665 36.10744040364756 L121.8624206924313 37.47979127004959 L123.16506548871598 38.87767298574448 L124.46771028500066 40.30033284804085 L125.77035508128535 41.74705014293022 L127.07299987757 43.21712680612927 L128.37564467385468 44.7098786774344 L129.67828947013936 46.22462737182599 L130.98093426642404 47.76069278189479 L132.2835790627087 49.31738621831332 L133.58622385899338 50.89400418834498 L134.88886865527806 52.48982280664174 L136.19151345156274 54.104092828022004 L137.4941582478474 55.73603528815491 L138.79680304413208 57.38483773541586 L140.09944784041676 59.049651035234575 L141.40209263670144 60.72958672706358 L142.7047374329861 62.42371491363386 L144.00738222927077 64.13106266201225 L145.31002702555546 65.85061289656454 L146.61267182184014 67.58130376443373 L147.9153166181248 69.32202845523031 L149.21796141440947 71.07163545751956 L150.52060621069415 72.82892923577131 L151.82325100697884 74.59267131239744 L153.1258958032635 76.36158174031789 L154.42854059954817 78.13434095212287 L155.73118539583285 79.90959197234423 L157.03383019211753 81.68594297947976 L158.3364749884022 83.46197020429082 L159.63911978468687 85.23622115054982 L160.94176458097155 87.00721812370102 L162.24440937725623 88.77346205206462 L163.5470541735409 90.5334365840774 L164.84969896982557 92.28561244378699 L166.15234376611025 94.02845202541198 L167.45498856239493 95.76041420625376 L168.75763335867958 97.4799593557106 L170.06027815496427 99.18555451662635 L171.36292295124892 100.87567873363383 L172.66556774753363 102.54882850187084 L173.96821254381828 104.20352330803735 L175.27085734010296 105.83831123478365 L176.57350213638765 107.45177459838229 L177.87614693267233 109.04253558899674 L179.17879172895698 110.609261882287 L180.48143652524166 112.15067219087717 L181.78408132152632 113.66554172405725 L183.08672611781103 115.15270752429174 L183.08672611781103 115.15270752429174 L184.38937091409568 116.61107364940133 L185.69201571038036 118.03961616979865 L186.99466050666504 119.4373879508019 L188.29730530294972 120.80352319084855 L189.59995009923438 122.13724168731625 L190.90259489551906 123.43785280263566 L192.2052396918037 124.70475910442443 L193.50788448808842 125.9374596544682 L194.81052928437308 127.13555292250655 L196.11317408065776 128.29873930195282 L197.41581887694244 129.4268232058879 L198.71846367322712 130.5197147229047 L200.02110846951177 131.57743081369247 L201.32375326579646 132.60009603064842 L202.6263980620811 133.5879427442605 L203.92904285836582 134.54131086164048 L205.23168765465047 135.46064702437008 L206.53433245093515 136.34650327479144 L207.83697724721983 137.19953518209255 L209.13962204350452 138.02049942202646 L210.44226683978917 138.81025080687118 L211.74491163607385 139.56973876534352 L213.0475564323585 140.3000032756115 L214.35020122864321 141.0021702583419 L215.65284602492787 141.6774464408553 L216.95549082121255 142.32711370789468 L218.25813561749723 142.95252295932525 L219.5607804137819 143.55508750006746 L220.86342521006657 144.13627599286394 L222.16607000635125 144.69760500983656 L223.4687148026359 145.2406312242846 L224.7713595989206 145.7669432896192 L226.07400439520526 146.2781534576704 L227.37664919148995 146.77588899370176 L228.67929398777463 147.26178345027674 L229.9819387840593 147.73746786641564 L231.28458358034396 148.20456196228534 L232.58722837662864 148.6646654027283 L233.8898731729133 149.11934920525664 L235.192517969198 149.57014736957666 L236.49516276548266 150.018548806156 L237.79780756176734 150.46598964078436 L239.10045235805202 150.91384597043984 L240.4030971543367 151.36342714295463 L241.70574195062136 151.8159696291046 L243.00838674690604 152.27263155067382 L244.3110315431907 152.73448792194432 L245.6136763394754 153.20252665487646 L246.91632113576006 153.67764537014352 L248.21896593204474 154.16064904721233 L249.52161072832942 154.65224853693266 L250.8242555246141 155.15305994986048 L252.12690032089876 155.6636049227528 L253.42954511718344 156.18431175471576 L254.7321899134681 156.71551739340902 L256.03483470975283 157.2574702406997 L257.3374795060375 157.81033373650644 L258.64012430232214 158.3741906692935 L259.94276909860685 158.9490481521308 L261.2454138948915 159.53484319444732 L262.54805869117615 160.13144879179998 L263.85070348746086 160.73868044929756 L265.1533482837455 161.35630304883674 L266.4559930800302 161.9840379661655 L267.7586378763149 162.6215703410369 L269.06128267259953 163.26855640238966 L270.36392746888424 163.92463075065237 L271.6665722651689 164.589413500855 L272.96921706145355 165.2625171932749 L274.27186185773826 165.94355338270253 L275.5745066540229 166.63213882311274 L276.8771514503076 167.3279011713645 L278.1797962465923 168.03048414146056 L279.4824410428769 168.73955204973487 L280.78508583916164 169.45479370092642 L282.0877306354463 170.17592557529383 L283.39037543173094 170.90269428756278 L284.69302022801565 171.63487829938816 L285.9956650243003 172.37228887797397 L287.298309820585 173.11477030441768 L288.60095461686967 173.8621993459526 L289.9035994131543 174.61448401651907 L291.20624420943903 175.3715616597751 L292.5088890057237 176.1333963976497 L293.81153380200834 176.89997599576597 L295.114178598293 177.67130820433815 L296.4168233945777 178.44741663950452 L297.71946819086236 179.22833627530747 L299.02211298714707 180.0141086207425 L300.3247577834317 180.80477665937207 L301.62740257971643 181.60037963091816 L302.930047376001 182.4009477351159 L304.23269217228574 183.2064968378056 L305.53533696857045 184.0170232579132 L306.8379817648551 184.83249871166788 L308.14062656113975 185.6528654870757 L309.4432713574244 186.47803191756827 L310.7459161537091 187.30786821878235 L312.0485609499938 188.14220274682617 L312.0485609499938 188.14220274682617 L313.3512057462784 188.9808187301377 L314.65385054256313 189.8234515203448 L315.95649533884784 190.66978640040077 L317.2591401351325 191.5194569808575 L318.56178493141715 192.3720442075517 L319.86442972770186 193.22707599627086 L321.1670745239865 194.0840275022991 L322.4697193202712 194.94232202514533 L323.7723641165558 195.80133254139432 L325.07500891284053 196.66038385147266 L326.37765370912524 197.51875531938094 L327.6802985054099 198.37568417808723 L328.98294330169455 199.23036936738376 L330.2855880979792 200.0819758656853 L331.5882328942639 200.92963947244982 L332.8908776905486 201.77247199372997 L334.1935224868332 202.60956677979686 L335.4961672831179 203.44000456087684 L336.79881207940264 204.26285952474535 L338.1014568756873 205.07720557830146 L339.40410167197194 205.88212273423377 L340.70674646825665 206.67670356348117 L342.0093912645413 207.46005965439267 L343.312036060826 208.23132802021098 L344.6146808571106 208.98967739776657 L345.9173256533953 209.7343143819957 L347.21997044968003 210.4644893430572 L348.5226152459647 211.1795020753766 L349.82526004224934 211.87870713083896 L351.127904838534 212.56151879155948 L352.4305496348187 213.227415641093 L353.7331944311034 213.87594469664356 L355.035839227388 214.50672506865402 L356.3384840236727 215.11945111817425 L357.64112881995743 215.713895086491 L358.9437736162421 216.28990917570917 L360.24641841252674 216.84742706322118 L361.54906320881145 217.3864648372998 L362.8517080050961 217.90712134537526 L364.1543528013808 218.40957795089872 L365.4569975976654 218.8940976990261 L366.7596423939501 219.36102389569643 L368.0622871902348 219.8107781089855 L369.3649319865195 220.24385760589905 L370.66757678280413 220.66083224201236 L371.9702215790888 221.062340825545 L373.2728663753735 221.44908698157084 L374.5755111716582 221.8218345460774 L375.8781559679428 222.18140252348695 L377.1808007642275 222.5286596449874 L378.4834455605122 222.86451856859765 L379.7860903567969 223.18992976521687 L381.08873515308153 223.50587513799866 L382.39137994936624 223.8133614251566 L383.6940247456509 224.11341343873357 L384.9966695419356 224.40706719388874 L386.2993143382202 224.69536298483746 L387.6019591345049 224.9793384646723 L388.9046039307896 225.2600217868566 L390.2072487270743 225.53842486618072 L391.5098935233589 225.8155368163819 L392.8125383196436 226.09231762041617 L394.1151831159283 226.36969208753607 L395.417827912213 226.6485441488573 L396.7204727084976 226.92971154001108 L398.0231175047823 227.21398091577663 L399.325762301067 227.5020834373176 L400.62840709735167 227.79469086785008 L401.9310518936363 228.09241220727492 L403.23369668992103 228.3957908906146 L404.5363414862057 228.70530256904578 L405.8389862824904 229.02135348601269 L407.141631078775 229.34427945441564 L408.4442758750597 229.67434543430744 L409.7469206713444 230.01174570396284 L411.04956546762907 230.35660461074434 L412.3522102639137 230.70897788193503 L413.6548550601984 231.0688544697603 L414.9574998564831 231.43615889926127 L416.2601446527678 231.8107540825792 L417.5627894490524 232.19244455866382 L418.8654342453371 232.58098011346408 L420.1680790416218 232.9760597323809 L421.47072383790646 233.37733583416951 L422.7733686341911 233.78441873363502 L424.0760134304758 234.19688127936058 L425.3786582267605 234.61426361235894 L426.6813030230452 235.03607799194245 L427.9839478193298 235.46181363622526 L429.2865926156145 235.8909415264898 L430.5892374118992 236.32291912711383 L431.89188220818386 236.757194975818 L433.1945270044685 237.19321310258627 L434.49717180075316 237.6304172396737 L435.7998165970379 238.06825478956657 L437.1024613933226 238.50618052252634 L438.4051061896072 238.94365998033146 L439.7077509858919 239.38017256798352 L441.0103957821766 239.81521432032412 L442.31304057846125 240.24830033570845 L443.6156853747459 240.67896687394278 L444.9183301710306 241.10677312060534 L446.22097496731527 241.53130262452453 L447.5236197636 241.9521644195238 L448.8262645598846 242.36899384552513 L450.1289093561693 242.78145308764041 L451.431554152454 243.18923145497035 L452.73419894873865 243.59204542340905 L454.0368437450233 243.98963846881162 L455.33948854130796 244.38178071838618 L456.64213333759267 244.76826844914046 L457.9447781338774 245.1489234626108 L459.247422930162 245.52359236497435 L460.5500677264467 245.8921457809816 L461.8527125227314 246.25447752899055 L463.15535731901605 246.61050378276332 L464.4580021153007 246.96016224363663 L465.7606469115854 247.3034113442549 L467.06329170787006 247.64022950230526 L468.3659365041548 247.97061443967075 L469.66858130043937 248.29458257918952 L470.9712260967241 248.6121685278292 L472.2738708930088 248.92342465162122 L473.57651568929344 249.22842074421996 L474.8791604855781 249.52724378750787 L476.18180528186275 249.81999779933213 L477.48445007814746 250.1068037602845 L478.78709487443217 250.38779960847708 L480.08973967071677 250.66314028857823 L481.3923844670015 250.93299783898806 L482.6950292632862 251.19756149900903 L483.99767405957084 251.45703781621015 L485.3003188558555 251.7116507329456 L486.6029636521402 251.96164163016147 L487.90560844842486 252.20726930623695 L489.20825324470957 252.44880986865377 L490.51089804099416 252.68655651675854 L491.8135428372789 252.9208191947842 L493.1161876335636 253.1519240955859 L494.41883242984824 253.38021299722936 L495.7214772261329 253.60604241658808 L497.02412202241754 253.82978256645143 L498.32676681870225 254.05181610527052 L499.62941161498696 254.27253667153184 L500.93205641127156 254.49234719782092 L502.23470120755627 254.7116580028644 L503.537346003841 254.9308846631843 L504.83999080012563 255.1504456694203 L506.1426355964103 255.37075987582733 L507.445280392695 255.59224375489976 L508.74792518897965 255.81530847247242 L510.05056998526436 256.0403568019564 L511.35321478154896 256.26777989955906 L512.6558595778337 256.4979539653642 L513.9585043741184 256.73123681799655 L515.2611491704031 256.96796441320737 L516.5637939666877 257.20844733909587 L517.8664387629724 257.45296732276745 L519.169083559257 257.70177378502024 L520.4717283555418 257.9550804811063 L521.7743731518264 258.2130622667181 L523.0770179481111 258.47585202907385 L524.3796627443958 258.7435378233034 L525.6823075406804 259.0161602542442 L526.9849523369651 259.29371014322504 L528.2875971332498 259.57612651843533 L529.5902419295345 259.86329496602644 L530.8928867258192 260.15504637716396 L532.1955315221038 260.45115612383904 L533.4981763183885 260.75134369334785 L534.8008211146732 261.05527280796343 L536.1034659109579 261.36255205246493 L537.4061107072425 261.6727360278627 L538.7087555035272 261.98532704489475 L540.0114002998118 262.2997773656871 L541.3140450960966 262.61549199641297 L542.6166898923811 262.93183202789515 L543.9193346886659 263.2481185149187 L545.2219794849506 263.5636368786261 L546.5246242812352 263.87764180981753 L547.8272690775199 264.1893626443483 L549.1299138738046 264.4980091751903 L550.4325586700892 264.80277785919225 L551.735203466374 265.10285837022053 L553.0378482626586 265.39744044429676 L554.3404930589433 265.68572095665434 L555.6431378552279 265.9669111654276 L556.9457826515126 266.2402440520469 L558.2484274477973 266.5049816844504 L559.551072244082 266.76042252601525 L560.8537170403666 267.00590861075085 L562.1563618366513 267.2408325038528 L563.4590066329359 267.46464396625737 L564.7616514292207 267.6768562424084 L566.0642962255054 267.8770518921007 L567.36694102179 268.06488809000547 L568.6695858180747 268.2401013203371 L569.9722306143594 268.4025113990629 L571.274875410644 268.55202476207114 L572.5775202069286 268.6886369647467 L573.8801650032134 268.8124343463966 L575.182809799498 268.9235948218388 L576.4854545957827 269.0223877721164 L577.7880993920675 269.1091730166183 L579.0907441883521 269.18439885973476 L580.3933889846368 269.2485992164324 L581.6960337809214 269.30238983261785 L582.9986785772061 269.3464636277396 L584.3013233734907 269.3815851985652 L585.6039681697754 269.40858453430735 L586.9066129660602 269.42835000408087 L588.2092577623448 269.44182068788643 L589.5119025586295 269.44997813177173 L590.8145473549142 269.45383761636054 L592.1171921511988 269.4544390354161 L593.4198369474834 269.452837487398 L594.7224817437682 269.45009368794774 L596.0251265400528 269.44726431481683 L597.3277713363375 269.4453923988493 L598.6304161326223 269.4454978751896 L599.9330609289069 269.44856840788447 L601.2357057251916 269.4555505984705 L602.5383505214762 269.4673416850054 L603.8409953177609 269.4847818323566 L605.1436401140455 269.5086471074684 L606.4462849103303 269.539643224882 L607.748929706615 269.57840013808845 L609.0515745028996 269.6254675414922 L610.3542192991843 269.6813113359974 L611.656864095469 269.74631109867136 L612.9595088917536 269.8207585837655 L614.2621536880382 269.9048572687824 L615.564798484323 269.99872294545526 L616.8674432806076 270.1023853416641 L618.1700880768923 270.2157907466509 L619.472732873177 270.33880559861336 L620.7753776694617 270.47122098104796 L622.0780224657464 270.6127579622673 L623.380667262031 270.76307370150187 L624.6833120583157 270.9217682350765 L625.9859568546003 271.0883918474688 L627.288601650885 271.26245292472646 L628.5912464471697 271.4434261818578 L629.8938912434544 271.63076115148004 L631.196536039739 271.82389081827966 L632.4991808360238 272.0222402827316 L633.8018256323084 272.2252353380545 L635.104470428593 272.4323108465217 L636.4071152248778 272.6429188049665 L637.7097600211624 272.8565359945495 L639.0124048174471 273.0726711165076 L640.3150496137318 273.290871323573 L641.6176944100165 273.5107280659131 L642.9203392063012 273.73188218065116 L644.2229840025858 273.95402816513496 L645.5256287988705 274.1769175859523 L646.8282735951551 274.40036158807567 L648.1309183914399 274.62423248127027 L649.4335631877245 274.8484643938324 L650.7362079840092 275.0730529966538 L652.0388527802938 275.2980543133461 L653.3414975765786 275.52358264452795 L654.6441423728631 275.7498076462034 L655.9467871691478 275.97695061328136 L657.2494319654326 276.2052800295478 L658.5520767617172 276.4351064546771 L659.8547215580019 276.6667768270231 L661.1573663542866 276.90066826787614 L662.4600111505713 277.13718147851154 L663.762655946856 277.3767338256374 L665.0653007431406 277.619752213722 L666.3679455394252 277.866665844128 L667.6705903357099 278.1178989610043 L668.9732351319946 278.37386368249724 L670.2758799282793 278.6349530131009 L671.578524724564 278.90153412891357 L672.8811695208486 279.17394202230105 L674.1838143171334 279.4524735860742 L675.4864591134179 279.7373822098883 L676.7891039097026 280.0288729532864 L678.0917487059874 280.3270983507803 L679.394393502272 280.63215489473754 L680.6970382985567 280.94408023177164 L681.9996830948414 281.2628510979771 L683.3023278911261 281.588382007869 L684.6049726874107 281.9205247014343 L685.9076174836955 282.25906834343726 L687.21026227998 282.6037404591894 L688.5129070762647 282.95420858153716 L689.8155518725495 283.31008257496296 L691.1181966688341 283.6709175945619 L692.4208414651188 284.03621763033925 L693.7234862614034 284.40543958086755 L695.0261310576882 284.7779977949149 L696.3287758539727 285.1532690152539 L697.6314206502574 285.5305976555302 L698.9340654465421 285.9093013388128 " fill="none" stroke-width="1.6500000000000001" stroke="rgb(71,71,71)" stroke-opacity="1.0">
                </path>
              </g>
            </g>
          </g>
        </g>
        <defs>
          <clipPath id="c9DTZgx">
            <rect x="32.783360008384264" y="0.0" width="732.2166399916157" height="297.0">
            </rect>
          </clipPath>
        </defs>
      </g>
      <g>
        <g transform="translate(32.783360008384264 297.0 ) ">
          <g transform="translate(33.28257454507344 0.0 ) ">
            <line stroke-width="1.0" stroke="rgb(71,71,71)" stroke-opacity="1.0" x2="0.0" y2="4.0">
            </line>
            <g transform="translate(0.0 7.0 ) ">
              <text class="axis-text-x" text-anchor="middle" dy="0.7em">
                <tspan>0</tspan>
              </text>
            </g>
          </g>
          <g transform="translate(99.84772363522032 0.0 ) ">
            <line stroke-width="1.0" stroke="rgb(71,71,71)" stroke-opacity="1.0" x2="0.0" y2="4.0">
            </line>
            <g transform="translate(0.0 7.0 ) ">
              <text class="axis-text-x" text-anchor="middle" dy="0.7em">
                <tspan>1</tspan>
              </text>
            </g>
          </g>
          <g transform="translate(166.41287272536718 0.0 ) ">
            <line stroke-width="1.0" stroke="rgb(71,71,71)" stroke-opacity="1.0" x2="0.0" y2="4.0">
            </line>
            <g transform="translate(0.0 7.0 ) ">
              <text class="axis-text-x" text-anchor="middle" dy="0.7em">
                <tspan>2</tspan>
              </text>
            </g>
          </g>
          <g transform="translate(232.97802181551407 0.0 ) ">
            <line stroke-width="1.0" stroke="rgb(71,71,71)" stroke-opacity="1.0" x2="0.0" y2="4.0">
            </line>
            <g transform="translate(0.0 7.0 ) ">
              <text class="axis-text-x" text-anchor="middle" dy="0.7em">
                <tspan>3</tspan>
              </text>
            </g>
          </g>
          <g transform="translate(299.54317090566093 0.0 ) ">
            <line stroke-width="1.0" stroke="rgb(71,71,71)" stroke-opacity="1.0" x2="0.0" y2="4.0">
            </line>
            <g transform="translate(0.0 7.0 ) ">
              <text class="axis-text-x" text-anchor="middle" dy="0.7em">
                <tspan>4</tspan>
              </text>
            </g>
          </g>
          <g transform="translate(366.1083199958078 0.0 ) ">
            <line stroke-width="1.0" stroke="rgb(71,71,71)" stroke-opacity="1.0" x2="0.0" y2="4.0">
            </line>
            <g transform="translate(0.0 7.0 ) ">
              <text class="axis-text-x" text-anchor="middle" dy="0.7em">
                <tspan>5</tspan>
              </text>
            </g>
          </g>
          <g transform="translate(432.6734690859547 0.0 ) ">
            <line stroke-width="1.0" stroke="rgb(71,71,71)" stroke-opacity="1.0" x2="0.0" y2="4.0">
            </line>
            <g transform="translate(0.0 7.0 ) ">
              <text class="axis-text-x" text-anchor="middle" dy="0.7em">
                <tspan>6</tspan>
              </text>
            </g>
          </g>
          <g transform="translate(499.23861817610157 0.0 ) ">
            <line stroke-width="1.0" stroke="rgb(71,71,71)" stroke-opacity="1.0" x2="0.0" y2="4.0">
            </line>
            <g transform="translate(0.0 7.0 ) ">
              <text class="axis-text-x" text-anchor="middle" dy="0.7em">
                <tspan>7</tspan>
              </text>
            </g>
          </g>
          <g transform="translate(565.8037672662484 0.0 ) ">
            <line stroke-width="1.0" stroke="rgb(71,71,71)" stroke-opacity="1.0" x2="0.0" y2="4.0">
            </line>
            <g transform="translate(0.0 7.0 ) ">
              <text class="axis-text-x" text-anchor="middle" dy="0.7em">
                <tspan>8</tspan>
              </text>
            </g>
          </g>
          <g transform="translate(632.3689163563953 0.0 ) ">
            <line stroke-width="1.0" stroke="rgb(71,71,71)" stroke-opacity="1.0" x2="0.0" y2="4.0">
            </line>
            <g transform="translate(0.0 7.0 ) ">
              <text class="axis-text-x" text-anchor="middle" dy="0.7em">
                <tspan>9</tspan>
              </text>
            </g>
          </g>
          <g transform="translate(698.9340654465421 0.0 ) ">
            <line stroke-width="1.0" stroke="rgb(71,71,71)" stroke-opacity="1.0" x2="0.0" y2="4.0">
            </line>
            <g transform="translate(0.0 7.0 ) ">
              <text class="axis-text-x" text-anchor="middle" dy="0.7em">
                <tspan>10</tspan>
              </text>
            </g>
          </g>
          <line x1="0.0" y1="0.0" x2="732.2166399916157" y2="0.0" stroke-width="1.0" stroke="rgb(71,71,71)" stroke-opacity="1.0">
          </line>
        </g>
        <g transform="translate(32.783360008384264 0.0 ) ">
          <g transform="translate(0.0 297.0 ) ">
            <g transform="translate(-3.0 0.0 ) ">
              <text class="axis-text-y" text-anchor="end" dy="0.35em">
                <tspan>0.00</tspan>
              </text>
            </g>
          </g>
          <g transform="translate(0.0 238.58276218176115 ) ">
            <g transform="translate(-3.0 0.0 ) ">
              <text class="axis-text-y" text-anchor="end" dy="0.35em">
                <tspan>0.05</tspan>
              </text>
            </g>
          </g>
          <g transform="translate(0.0 180.1655243635223 ) ">
            <g transform="translate(-3.0 0.0 ) ">
              <text class="axis-text-y" text-anchor="end" dy="0.35em">
                <tspan>0.10</tspan>
              </text>
            </g>
          </g>
          <g transform="translate(0.0 121.74828654528343 ) ">
            <g transform="translate(-3.0 0.0 ) ">
              <text class="axis-text-y" text-anchor="end" dy="0.35em">
                <tspan>0.15</tspan>
              </text>
            </g>
          </g>
          <g transform="translate(0.0 63.33104872704462 ) ">
            <g transform="translate(-3.0 0.0 ) ">
              <text class="axis-text-y" text-anchor="end" dy="0.35em">
                <tspan>0.20</tspan>
              </text>
            </g>
          </g>
          <g transform="translate(0.0 4.913810908805772 ) ">
            <g transform="translate(-3.0 0.0 ) ">
              <text class="axis-text-y" text-anchor="end" dy="0.35em">
                <tspan>0.25</tspan>
              </text>
            </g>
          </g>
        </g>
      </g>
    </g>
    <g transform="translate(427.3916800041921 21.6 ) ">
      <text class="plot-title" y="0.0" text-anchor="middle">
        <tspan>Density Plot of Draw Odds</tspan>
      </text>
    </g>
    <g transform="translate(427.3916800041921 42.8 ) ">
      <text class="plot-subtitle" y="0.0" text-anchor="middle">
        <tspan>Draw odds cluster at the range of 3 to 5 with a peak at 3.6</tspan>
      </text>
    </g>
    <g transform="translate(15.200000000000001 201.0 ) rotate(-90.0 ) ">
      <text class="axis-title-y" y="0.0" text-anchor="middle">
        <tspan>Density</tspan>
      </text>
    </g>
    <g transform="translate(427.3916800041921 393.2 ) ">
      <text class="axis-title-x" y="0.0" text-anchor="middle">
        <tspan>Odds Difference</tspan>
      </text>
    </g>
    <path fill="rgb(0,0,0)" fill-opacity="0.0" stroke="rgb(71,71,71)" stroke-opacity="1.0" stroke-width="0.0" d="M0.0 0.0 L0.0 400.0 L800.0 400.0 L800.0 0.0 Z" pointer-events="none">
    </path>
  </g>
  <g id="dDwNziZ">
  </g>
</svg>